<?xml version="1.0" encoding="utf-8"?>
<!-- Generator: Adobe Illustrator 23.0.6, SVG Export Plug-In . SVG Version: 6.00 Build 0)  -->
<svg version="1.1" id="레이어_1" xmlns="http://www.w3.org/2000/svg" xmlns:xlink="http://www.w3.org/1999/xlink" x="0px"
	 y="0px" viewBox="0 0 1689.6 1689.6" style="enable-background:new 0 0 1689.6 1689.6;" xml:space="preserve">
<style type="text/css">
	.st0{fill:#FFFFFF;}
</style>
<title>insta</title>
<path class="st0" d="M563.3,844.8c0-155.5,126-281.6,281.6-281.6s281.6,126.1,281.6,281.6s-126.1,281.6-281.7,281.6
	S563.3,1000.3,563.3,844.8 M411,844.8c0,239.6,194.2,433.8,433.8,433.8s433.8-194.2,433.8-433.8S1084.4,411,844.8,411
	S411,605.2,411,844.8 M1194.4,393.8c0,56,45.3,101.4,101.3,101.4s101.4-45.3,101.4-101.3s-45.3-101.4-101.3-101.4l0,0
	C1239.9,292.5,1194.5,337.8,1194.4,393.8 M503.5,1532.5c-82.4-3.8-127.1-17.5-156.9-29.1c-39.4-15.4-67.6-33.7-97.2-63.2
	s-47.9-57.7-63.2-97.1c-11.6-29.7-25.3-74.5-29.1-156.9c-4.1-89.1-4.9-115.8-4.9-341.4s0.9-252.3,4.9-341.4
	c3.8-82.4,17.6-127.1,29.1-156.9c15.4-39.4,33.7-67.6,63.2-97.2s57.7-47.9,97.2-63.2c29.7-11.6,74.5-25.3,156.9-29.1
	c89-4.1,115.8-4.9,341.3-4.9s252.3,0.9,341.4,4.9c82.4,3.8,127.1,17.6,156.9,29.1c39.4,15.3,67.6,33.6,97.2,63.2
	s47.8,57.7,63.2,97.2c11.6,29.7,25.3,74.5,29.1,156.9c4.1,89.1,4.9,115.8,4.9,341.4s-0.8,252.3-4.9,341.4
	c-3.8,82.4-17.5,127.1-29.1,156.9c-15.3,39.4-33.6,67.6-63.2,97.1s-57.7,47.8-97.2,63.2c-29.7,11.6-74.5,25.3-156.9,29.1
	c-89,4.1-115.8,4.9-341.4,4.9S592.5,1536.6,503.5,1532.5 M496.5,5.1c-89.9,4.1-151.4,18.3-205.1,39.2
	c-55.5,21.6-102.7,50.5-149.7,97.5s-75.9,94-97.5,149.7C23.4,345.2,9.2,406.6,5.1,496.5S0,615.4,0,844.8s1,258.2,5.1,348.3
	s18.4,151.4,39.2,205.1c21.6,55.5,50.5,102.7,97.5,149.6s94,75.8,149.7,97.4c53.8,20.9,115.1,35.2,205.1,39.2
	c90.1,4.1,118.9,5.1,348.3,5.1s258.2-1,348.3-5.1s151.3-18.3,205.1-39.2c55.5-21.6,102.6-50.5,149.7-97.4s75.8-94.1,97.5-149.7
	c20.9-53.7,35.2-115.1,39.2-205.1c4.1-90.1,5-118.9,5-348.3s-1-258.2-5-348.3s-18.4-151.4-39.2-205.1
	c-21.6-55.5-50.5-102.6-97.4-149.6s-94.1-75.9-149.6-97.4c-53.8-20.9-115.2-35.2-205.1-39.3C1103.1,1,1074.3,0,844.9,0
	S586.7,1,496.5,5.1"/>
</svg>
