<svg id="레이어_1" data-name="레이어 1" xmlns="http://www.w3.org/2000/svg" viewBox="0 0 9086.87 185.22"><title>pattern_footer</title><polygon points="30.32 0 0 30.32 0 14.77 14.77 0 30.32 0"/><polygon points="59.28 0 0 59.28 0 43.74 43.74 0 59.28 0"/><polygon points="88.25 0 0 88.26 0 72.71 72.7 0 88.25 0"/><polygon points="117.22 0 0 117.22 0 101.68 101.68 0 117.22 0"/><polygon points="146.18 0 0 146.19 0 130.65 130.64 0 146.18 0"/><polygon points="175.15 0 0 175.16 0 159.61 159.61 0 175.15 0"/><polygon points="204.12 0 18.9 185.22 3.36 185.22 188.58 0 204.12 0"/><polygon points="221.86 11.23 47.87 185.22 32.32 185.22 214.09 3.46 221.86 11.23"/><polygon points="236.35 25.71 76.83 185.22 61.3 185.22 228.57 17.94 236.35 25.71"/><polygon points="250.83 40.2 105.8 185.22 90.26 185.22 243.06 32.42 250.83 40.2"/><polygon points="370.44 14.59 370.44 30.13 340.31 0 355.86 0 370.44 14.59"/><polygon points="370.44 43.55 370.44 59.1 311.34 0 326.89 0 370.44 43.55"/><polygon points="370.44 72.52 370.44 88.07 282.38 0 297.92 0 370.44 72.52"/><polygon points="370.44 101.49 370.44 117.03 253.41 0 268.95 0 370.44 101.49"/><polygon points="370.44 130.46 370.44 146 224.44 0 239.99 0 370.44 130.46"/><polygon points="370.44 159.81 370.44 175.35 249.96 54.87 257.73 47.1 370.44 159.81"/><polygon points="366.89 185.22 351.34 185.22 235.48 69.35 243.25 61.58 366.89 185.22"/><polygon points="337.92 185.22 322.38 185.22 220.99 83.84 228.76 76.07 337.92 185.22"/><polygon points="308.95 185.22 293.41 185.22 206.51 98.32 214.28 90.55 308.95 185.22"/><polygon points="279.99 185.22 264.44 185.22 192.03 112.8 199.8 105.03 279.99 185.22"/><polygon points="251.02 185.22 235.48 185.22 177.54 127.29 185.31 119.52 251.02 185.22"/><polygon points="222.05 185.22 206.51 185.22 163.06 141.77 170.83 134 222.05 185.22"/><polygon points="193.08 185.22 177.54 185.22 148.58 156.25 156.35 148.49 193.08 185.22"/><polygon points="164.12 185.22 148.58 185.22 134.09 170.74 141.87 162.97 164.12 185.22"/><polygon points="135.15 185.22 119.61 185.22 127.38 177.45 135.15 185.22"/><polygon points="749.42 30.32 719.1 0 734.64 0 749.42 14.78 749.42 30.32"/><polygon points="749.42 59.28 690.13 0 705.68 0 749.42 43.74 749.42 59.28"/><polygon points="749.42 88.25 661.16 0 676.71 0 749.42 72.71 749.42 88.25"/><polygon points="749.42 117.22 632.2 0 647.74 0 749.42 101.68 749.42 117.22"/><polygon points="749.42 146.19 603.23 0 618.77 0 749.42 130.65 749.42 146.19"/><polygon points="749.42 175.16 574.26 0 589.81 0 749.42 159.62 749.42 175.16"/><polygon points="746.05 185.22 730.51 185.22 545.3 0 560.84 0 746.05 185.22"/><polygon points="717.09 185.22 701.54 185.22 516.33 0 531.87 0 717.09 185.22"/><polygon points="688.12 185.22 672.58 185.22 487.36 0 502.9 0 688.12 185.22"/><polygon points="659.15 185.22 643.61 185.22 458.4 0 473.94 0 659.15 185.22"/><polygon points="629.8 185.22 614.46 185.22 622.13 177.55 629.8 185.22"/><polygon points="615.42 170.84 601.03 185.22 585.49 185.22 607.65 163.06 615.42 170.84"/><polygon points="600.93 156.35 572.06 185.22 556.52 185.22 593.16 148.58 600.93 156.35"/><polygon points="586.45 141.87 543.1 185.22 527.56 185.22 578.68 134.1 586.45 141.87"/><polygon points="571.97 127.39 514.13 185.22 498.59 185.22 564.19 119.61 571.97 127.39"/><polygon points="549.52 120.48 429.04 0 444.59 0 557.29 112.71 549.52 120.48"/><polygon points="535.04 134.96 400.08 0 415.62 0 542.81 127.19 535.04 134.96"/><polygon points="520.55 149.44 378.98 7.87 378.98 0 386.65 0 528.33 141.67 520.55 149.44"/><polygon points="506.07 163.93 378.98 36.83 378.98 21.3 513.84 156.16 506.07 163.93"/><polygon points="491.59 178.41 378.98 65.8 378.98 50.26 499.36 170.65 491.59 178.41"/><polygon points="484.88 185.13 484.78 185.22 469.42 185.22 378.98 94.77 378.98 79.23 484.88 185.13"/><polygon points="456 185.22 440.46 185.22 378.98 123.74 378.98 108.19 456 185.22"/><polygon points="427.03 185.22 411.49 185.22 378.98 152.71 378.98 137.16 427.03 185.22"/><polygon points="398.07 185.22 382.52 185.22 378.98 181.67 378.98 166.13 398.07 185.22"/><polygon points="1128.39 166.32 1128.39 181.87 1125.04 185.22 1109.49 185.22 1128.39 166.32"/><polygon points="1128.39 137.36 1128.39 152.9 1096.07 185.22 1080.53 185.22 1128.39 137.36"/><polygon points="1128.39 108.39 1128.39 123.93 1067.1 185.22 1051.56 185.22 1128.39 108.39"/><polygon points="1128.39 79.42 1128.39 94.96 1038.13 185.22 1022.59 185.22 1128.39 79.42"/><polygon points="777.04 185.22 761.5 185.22 757.95 181.67 757.95 166.13 777.04 185.22"/><polygon points="806 185.22 790.47 185.22 757.95 152.7 757.95 137.17 806 185.22"/><polygon points="834.98 185.22 819.44 185.22 757.95 123.73 757.95 108.19 834.98 185.22"/><polygon points="863.94 185.22 848.4 185.22 757.95 94.77 757.95 79.23 863.94 185.22"/><polygon points="892.91 185.22 877.37 185.22 757.95 65.8 757.95 50.26 892.91 185.22"/><polygon points="921.88 185.22 906.33 185.22 757.95 36.83 757.95 21.29 921.88 185.22"/><polygon points="950.84 185.22 935.3 185.22 757.95 7.87 757.95 0 765.63 0 950.84 185.22"/><polygon points="979.81 185.22 964.27 185.22 779.05 0 794.6 0 979.81 185.22"/><polygon points="1008.78 185.22 993.24 185.22 808.02 0 823.56 0 1008.78 185.22"/><polygon points="1007.91 170.55 1128.39 50.07 1128.39 65.61 1015.69 178.32 1007.91 170.55"/><polygon points="993.43 156.06 1128.39 21.1 1128.39 36.65 1001.2 163.84 993.43 156.06"/><polygon points="978.95 141.58 1120.53 0 1128.39 0 1128.39 7.68 986.72 149.35 978.95 141.58"/><polygon points="964.47 127.1 1091.56 0 1107.1 0 972.23 134.87 964.47 127.1"/><polygon points="949.98 112.61 1062.59 0 1078.13 0 957.75 120.39 949.98 112.61"/><polygon points="935.49 98.13 1033.62 0 1049.17 0 943.27 105.9 935.49 98.13"/><polygon points="921.01 83.65 1004.65 0 1020.2 0 928.78 91.42 921.01 83.65"/><polygon points="906.53 69.16 975.69 0 991.23 0 914.3 76.94 906.53 69.16"/><polygon points="892.04 54.68 946.72 0 962.27 0 899.82 62.45 892.04 54.68"/><polygon points="877.56 40.2 917.76 0 933.29 0 885.33 47.96 877.56 40.2"/><polygon points="837.37 0 852.91 0 878.43 25.52 870.66 33.29 837.37 0"/><polygon points="866.34 0 881.88 0 892.91 11.04 885.14 18.81 866.34 0"/><polygon points="895.3 0 903.95 0 899.63 4.32 895.3 0"/><polygon points="1155.82 185.22 1140.28 185.22 1136.93 181.86 1136.93 166.32 1155.82 185.22"/><polygon points="1184.79 185.22 1169.25 185.22 1140.38 156.35 1148.15 148.58 1184.79 185.22"/><polygon points="1213.76 185.22 1198.22 185.22 1154.87 141.87 1162.64 134.1 1213.76 185.22"/><polygon points="1242.73 185.22 1227.18 185.22 1169.35 127.39 1177.12 119.61 1242.73 185.22"/><polygon points="1151.51 0 1167.06 0 1136.93 30.13 1136.93 14.59 1151.51 0"/><polygon points="1180.48 0 1196.02 0 1136.93 59.1 1136.93 43.55 1180.48 0"/><polygon points="1209.44 0 1224.99 0 1136.93 88.07 1136.93 72.52 1209.44 0"/><polygon points="1238.41 0 1253.95 0 1136.93 117.03 1136.93 101.49 1238.41 0"/><polygon points="1267.38 0 1282.92 0 1136.93 146 1136.93 130.46 1267.38 0"/><polygon points="1296.73 0 1312.28 0 1191.79 120.48 1184.02 112.71 1296.73 0"/><polygon points="1325.7 0 1341.24 0 1206.28 134.97 1198.51 127.19 1325.7 0"/><polygon points="1354.67 0 1370.2 0 1220.76 149.45 1212.99 141.68 1354.67 0"/><polygon points="1383.63 0 1399.17 0 1235.24 163.93 1227.47 156.16 1383.63 0"/><polygon points="1412.6 0 1428.14 0 1249.73 178.42 1241.95 170.65 1412.6 0"/><polygon points="1271.89 185.22 1457.11 0 1441.56 0 1256.43 185.13 1256.52 185.22 1271.89 185.22"/><polygon points="1486.08 0 1300.86 185.22 1285.31 185.22 1470.54 0 1486.08 0"/><polygon points="1507.37 0 1507.37 7.68 1329.82 185.22 1314.28 185.22 1499.5 0 1507.37 0"/><polygon points="1507.37 21.1 1507.37 36.65 1358.79 185.22 1343.25 185.22 1507.37 21.1"/><polygon points="1507.37 50.07 1507.37 65.61 1387.76 185.22 1372.22 185.22 1507.37 50.07"/><polygon points="1416.91 185.22 1401.57 185.22 1409.24 177.55 1416.91 185.22"/><polygon points="1445.88 185.22 1430.34 185.22 1415.95 170.84 1423.72 163.06 1445.88 185.22"/><polygon points="1474.85 185.22 1459.3 185.22 1430.43 156.35 1438.2 148.58 1474.85 185.22"/><polygon points="1503.81 185.22 1452.68 134.1 1444.91 141.87 1488.26 185.22 1503.81 185.22"/><polygon points="1467.17 119.61 1507.37 159.81 1507.37 175.35 1459.4 127.39 1467.17 119.61"/><polygon points="1507.37 79.42 1507.37 94.97 1481.85 120.48 1474.08 112.71 1507.37 79.42"/><polygon points="1507.37 108.39 1507.37 123.93 1496.33 134.97 1488.56 127.19 1507.37 108.39"/><polygon points="1507.37 137.36 1507.37 146 1503.05 141.68 1507.37 137.36"/><polygon points="3023.27 166.32 3023.27 181.87 3019.91 185.22 3004.37 185.22 3023.27 166.32"/><polygon points="3023.27 137.36 3023.27 152.9 2990.95 185.22 2975.4 185.22 3023.27 137.36"/><polygon points="3023.27 108.39 3023.27 123.93 2961.98 185.22 2946.44 185.22 3023.27 108.39"/><polygon points="3023.27 79.42 3023.27 94.96 2933.01 185.22 2917.47 185.22 3023.27 79.42"/><polygon points="2671.92 185.22 2656.38 185.22 2652.83 181.67 2652.83 166.13 2671.92 185.22"/><polygon points="2700.88 185.22 2685.35 185.22 2652.83 152.7 2652.83 137.17 2700.88 185.22"/><polygon points="2729.85 185.22 2714.31 185.22 2652.83 123.73 2652.83 108.19 2729.85 185.22"/><polygon points="2758.82 185.22 2743.28 185.22 2652.83 94.77 2652.83 79.23 2758.82 185.22"/><polygon points="2787.79 185.22 2772.24 185.22 2652.83 65.8 2652.83 50.26 2787.79 185.22"/><polygon points="2816.75 185.22 2801.21 185.22 2652.83 36.83 2652.83 21.29 2816.75 185.22"/><polygon points="2845.72 185.22 2830.18 185.22 2652.83 7.87 2652.83 0 2660.51 0 2845.72 185.22"/><polygon points="2874.68 185.22 2859.15 185.22 2673.93 0 2689.47 0 2874.68 185.22"/><polygon points="2888.11 185.22 2702.89 0 2718.44 0 2903.66 185.22 2888.11 185.22"/><polygon points="2902.79 170.55 3023.27 50.07 3023.27 65.61 2910.56 178.32 2902.79 170.55"/><polygon points="2888.31 156.06 3023.27 21.11 3023.27 36.65 2896.08 163.84 2888.31 156.06"/><polygon points="2873.82 141.58 3015.4 0 3023.27 0 3023.27 7.68 2881.6 149.35 2873.82 141.58"/><polygon points="2859.34 127.1 2986.44 0 3001.97 0 2867.11 134.87 2859.34 127.1"/><polygon points="2844.86 112.61 2957.47 0 2973.01 0 2852.63 120.39 2844.86 112.61"/><polygon points="2830.37 98.13 2928.5 0 2944.04 0 2838.14 105.9 2830.37 98.13"/><polygon points="2815.89 83.65 2899.53 0 2915.07 0 2823.66 91.42 2815.89 83.65"/><polygon points="2801.4 69.16 2870.57 0 2886.11 0 2809.18 76.94 2801.4 69.16"/><polygon points="2786.92 54.68 2841.6 0 2857.14 0 2794.69 62.45 2786.92 54.68"/><polygon points="2772.44 40.2 2812.63 0 2828.17 0 2780.21 47.96 2772.44 40.2"/><polygon points="2732.25 0 2747.79 0 2773.31 25.52 2765.53 33.29 2732.25 0"/><polygon points="2761.21 0 2776.76 0 2787.79 11.04 2780.02 18.81 2761.21 0"/><polygon points="2790.18 0 2798.82 0 2794.5 4.32 2790.18 0"/><polygon points="2292.75 185.22 2277.21 185.22 2273.85 181.86 2273.85 166.32 2292.75 185.22"/><polygon points="2321.72 185.22 2306.18 185.22 2277.31 156.35 2285.08 148.58 2321.72 185.22"/><polygon points="2350.69 185.22 2335.14 185.22 2291.79 141.87 2299.56 134.1 2350.69 185.22"/><polygon points="2379.65 185.22 2364.11 185.22 2306.27 127.39 2314.05 119.61 2379.65 185.22"/><polygon points="2288.44 0 2303.98 0 2273.85 30.13 2273.85 14.59 2288.44 0"/><polygon points="2317.4 0 2332.95 0 2273.85 59.1 2273.85 43.55 2317.4 0"/><polygon points="2346.37 0 2361.91 0 2273.85 88.07 2273.85 72.52 2346.37 0"/><polygon points="2375.34 0 2390.88 0 2273.85 117.03 2273.85 101.49 2375.34 0"/><polygon points="2404.3 0 2419.85 0 2273.85 146 2273.85 130.46 2404.3 0"/><polygon points="2433.66 0 2449.2 0 2328.72 120.48 2320.95 112.71 2433.66 0"/><polygon points="2462.62 0 2478.17 0 2343.2 134.97 2335.43 127.19 2462.62 0"/><polygon points="2491.59 0 2507.13 0 2357.69 149.45 2349.91 141.68 2491.59 0"/><polygon points="2520.56 0 2536.1 0 2372.17 163.93 2364.4 156.16 2520.56 0"/><polygon points="2549.53 0 2565.07 0 2386.65 178.42 2378.88 170.65 2549.53 0"/><polygon points="2594.04 0 2408.82 185.22 2393.46 185.22 2393.36 185.13 2578.49 0 2594.04 0"/><polygon points="2623.01 0 2437.78 185.22 2422.24 185.22 2607.46 0 2623.01 0"/><polygon points="2644.29 0 2644.29 7.68 2466.75 185.22 2451.21 185.22 2636.43 0 2644.29 0"/><polygon points="2644.29 21.1 2644.29 36.65 2495.72 185.22 2480.18 185.22 2644.29 21.1"/><polygon points="2644.29 50.07 2644.29 65.61 2524.69 185.22 2509.14 185.22 2644.29 50.07"/><polygon points="2553.84 185.22 2538.49 185.22 2546.16 177.55 2553.84 185.22"/><polygon points="2582.8 185.22 2567.26 185.22 2552.88 170.84 2560.65 163.06 2582.8 185.22"/><polygon points="2611.77 185.22 2596.23 185.22 2567.36 156.35 2575.13 148.58 2611.77 185.22"/><polygon points="2640.74 185.22 2625.2 185.22 2581.84 141.87 2589.61 134.1 2640.74 185.22"/><polygon points="2604.1 119.61 2644.29 159.81 2644.29 175.35 2596.33 127.39 2604.1 119.61"/><polygon points="2644.29 79.42 2644.29 94.97 2618.78 120.48 2611.01 112.71 2644.29 79.42"/><polygon points="2644.29 108.39 2644.29 123.93 2633.26 134.97 2625.49 127.19 2644.29 108.39"/><polygon points="2644.29 137.36 2644.29 146 2639.97 141.68 2644.29 137.36"/><polygon points="1925.19 0 1894.88 30.32 1894.88 14.78 1909.65 0 1925.19 0"/><polygon points="1954.16 0 1894.88 59.28 1894.88 43.74 1938.61 0 1954.16 0"/><polygon points="1983.13 0 1894.88 88.26 1894.88 72.71 1967.58 0 1983.13 0"/><polygon points="2012.09 0 1894.88 117.22 1894.88 101.68 1996.55 0 2012.09 0"/><polygon points="2041.06 0 1894.88 146.19 1894.88 130.65 2025.52 0 2041.06 0"/><polygon points="2070.03 0 1894.88 175.16 1894.88 159.61 2054.49 0 2070.03 0"/><polygon points="2099 0 1913.78 185.22 1898.23 185.22 2083.46 0 2099 0"/><polygon points="2116.74 11.23 1942.74 185.22 1927.2 185.22 2108.97 3.46 2116.74 11.23"/><polygon points="2131.22 25.71 1971.71 185.22 1956.17 185.22 2123.45 17.94 2131.22 25.71"/><polygon points="2145.71 40.2 2000.68 185.22 1985.14 185.22 2137.93 32.42 2145.71 40.2"/><polygon points="2265.32 14.59 2265.32 30.13 2235.19 0 2250.73 0 2265.32 14.59"/><polygon points="2265.32 43.55 2265.32 59.1 2206.22 0 2221.76 0 2265.32 43.55"/><polygon points="2265.32 72.52 2265.32 88.07 2177.25 0 2192.8 0 2265.32 72.52"/><polygon points="2265.32 101.49 2265.32 117.03 2148.29 0 2163.83 0 2265.32 101.49"/><polygon points="2265.32 130.46 2265.32 146 2119.32 0 2134.86 0 2265.32 130.46"/><polygon points="2265.32 159.81 2265.32 175.35 2144.84 54.87 2152.61 47.1 2265.32 159.81"/><polygon points="2261.76 185.22 2246.22 185.22 2130.35 69.35 2138.13 61.58 2261.76 185.22"/><polygon points="2232.79 185.22 2217.26 185.22 2115.87 83.84 2123.64 76.07 2232.79 185.22"/><polygon points="2203.82 185.22 2188.29 185.22 2101.39 98.32 2109.16 90.55 2203.82 185.22"/><polygon points="2174.86 185.22 2159.32 185.22 2086.9 112.8 2094.68 105.03 2174.86 185.22"/><polygon points="2145.9 185.22 2130.35 185.22 2072.42 127.29 2080.19 119.52 2145.9 185.22"/><polygon points="2116.93 185.22 2101.39 185.22 2057.94 141.77 2065.71 134 2116.93 185.22"/><polygon points="2087.96 185.22 2072.42 185.22 2043.45 156.25 2051.22 148.49 2087.96 185.22"/><polygon points="2058.99 185.22 2043.45 185.22 2028.97 170.74 2036.74 162.97 2058.99 185.22"/><polygon points="2030.03 185.22 2014.49 185.22 2022.26 177.45 2030.03 185.22"/><polygon points="1886.34 30.32 1856.03 0 1871.57 0 1886.34 14.78 1886.34 30.32"/><polygon points="1886.34 59.28 1827.06 0 1842.6 0 1886.34 43.74 1886.34 59.28"/><polygon points="1886.34 88.25 1798.09 0 1813.63 0 1886.34 72.71 1886.34 88.25"/><polygon points="1886.34 117.22 1769.12 0 1784.66 0 1886.34 101.68 1886.34 117.22"/><polygon points="1886.34 146.19 1740.15 0 1755.7 0 1886.34 130.65 1886.34 146.19"/><polygon points="1886.34 175.16 1711.19 0 1726.73 0 1886.34 159.62 1886.34 175.16"/><polygon points="1882.98 185.22 1867.44 185.22 1682.22 0 1697.77 0 1882.98 185.22"/><polygon points="1854.01 185.22 1838.47 185.22 1653.26 0 1668.8 0 1854.01 185.22"/><polygon points="1825.05 185.22 1809.5 185.22 1624.29 0 1639.83 0 1825.05 185.22"/><polygon points="1796.08 185.22 1780.54 185.22 1595.32 0 1610.86 0 1796.08 185.22"/><polygon points="1766.73 185.22 1751.38 185.22 1759.06 177.55 1766.73 185.22"/><polygon points="1752.35 170.84 1737.96 185.22 1722.42 185.22 1744.57 163.06 1752.35 170.84"/><polygon points="1737.86 156.35 1708.99 185.22 1693.45 185.22 1730.09 148.58 1737.86 156.35"/><polygon points="1723.37 141.87 1680.02 185.22 1664.48 185.22 1715.61 134.1 1723.37 141.87"/><polygon points="1708.89 127.39 1651.06 185.22 1635.51 185.22 1701.12 119.61 1708.89 127.39"/><polygon points="1686.44 120.48 1565.97 0 1581.51 0 1694.22 112.71 1686.44 120.48"/><polygon points="1671.96 134.96 1537 0 1552.55 0 1679.73 127.19 1671.96 134.96"/><polygon points="1657.48 149.44 1515.9 7.87 1515.9 0 1523.58 0 1665.25 141.67 1657.48 149.44"/><polygon points="1642.99 163.93 1515.9 36.83 1515.9 21.3 1650.77 156.16 1642.99 163.93"/><polygon points="1628.51 178.41 1515.9 65.8 1515.9 50.26 1636.28 170.65 1628.51 178.41"/><polygon points="1621.8 185.13 1621.71 185.22 1606.35 185.22 1515.9 94.77 1515.9 79.23 1621.8 185.13"/><polygon points="1592.93 185.22 1577.38 185.22 1515.9 123.74 1515.9 108.19 1592.93 185.22"/><polygon points="1563.96 185.22 1548.42 185.22 1515.9 152.71 1515.9 137.16 1563.96 185.22"/><polygon points="1534.99 185.22 1519.45 185.22 1515.9 181.67 1515.9 166.13 1534.99 185.22"/><polygon points="3402.24 30.32 3371.93 0 3387.47 0 3402.24 14.78 3402.24 30.32"/><polygon points="3402.24 59.28 3342.96 0 3358.5 0 3402.24 43.74 3402.24 59.28"/><polygon points="3402.24 88.25 3313.99 0 3329.53 0 3402.24 72.71 3402.24 88.25"/><polygon points="3402.24 117.22 3285.02 0 3300.57 0 3402.24 101.68 3402.24 117.22"/><polygon points="3402.24 146.19 3256.06 0 3271.6 0 3402.24 130.65 3402.24 146.19"/><polygon points="3402.24 175.16 3227.09 0 3242.63 0 3402.24 159.62 3402.24 175.16"/><polygon points="3398.88 185.22 3383.34 185.22 3198.12 0 3213.67 0 3398.88 185.22"/><polygon points="3369.91 185.22 3354.37 185.22 3169.16 0 3184.7 0 3369.91 185.22"/><polygon points="3340.95 185.22 3325.4 185.22 3140.19 0 3155.73 0 3340.95 185.22"/><polygon points="3311.98 185.22 3296.44 185.22 3111.22 0 3126.76 0 3311.98 185.22"/><polygon points="3282.63 185.22 3267.28 185.22 3274.96 177.55 3282.63 185.22"/><polygon points="3268.25 170.84 3253.86 185.22 3238.32 185.22 3260.47 163.06 3268.25 170.84"/><polygon points="3253.76 156.35 3224.89 185.22 3209.35 185.22 3245.99 148.58 3253.76 156.35"/><polygon points="3239.28 141.87 3195.92 185.22 3180.38 185.22 3231.51 134.1 3239.28 141.87"/><polygon points="3224.79 127.39 3166.96 185.22 3151.41 185.22 3217.02 119.61 3224.79 127.39"/><polygon points="3202.35 120.48 3081.87 0 3097.41 0 3210.12 112.71 3202.35 120.48"/><polygon points="3187.86 134.96 3052.9 0 3068.45 0 3195.64 127.19 3187.86 134.96"/><polygon points="3173.38 149.44 3031.8 7.87 3031.8 0 3039.48 0 3181.15 141.67 3173.38 149.44"/><polygon points="3158.9 163.93 3031.8 36.83 3031.8 21.3 3166.67 156.16 3158.9 163.93"/><polygon points="3144.41 178.41 3031.8 65.8 3031.8 50.26 3152.18 170.65 3144.41 178.41"/><polygon points="3137.7 185.13 3137.61 185.22 3122.25 185.22 3031.8 94.77 3031.8 79.23 3137.7 185.13"/><polygon points="3108.83 185.22 3093.28 185.22 3031.8 123.74 3031.8 108.19 3108.83 185.22"/><polygon points="3079.86 185.22 3064.32 185.22 3031.8 152.71 3031.8 137.16 3079.86 185.22"/><polygon points="3050.89 185.22 3035.35 185.22 3031.8 181.67 3031.8 166.13 3050.89 185.22"/><polygon points="3781.22 30.32 3750.9 0 3766.45 0 3781.22 14.78 3781.22 30.32"/><polygon points="3781.22 59.28 3721.94 0 3737.48 0 3781.22 43.74 3781.22 59.28"/><polygon points="3781.22 88.25 3692.96 0 3708.51 0 3781.22 72.71 3781.22 88.25"/><polygon points="3781.22 117.22 3664 0 3679.54 0 3781.22 101.68 3781.22 117.22"/><polygon points="3781.22 146.19 3635.03 0 3650.57 0 3781.22 130.65 3781.22 146.19"/><polygon points="3781.22 175.16 3606.06 0 3621.61 0 3781.22 159.62 3781.22 175.16"/><polygon points="3777.86 185.22 3762.32 185.22 3577.1 0 3592.64 0 3777.86 185.22"/><polygon points="3748.89 185.22 3733.34 185.22 3548.13 0 3563.68 0 3748.89 185.22"/><polygon points="3719.92 185.22 3704.38 185.22 3519.16 0 3534.7 0 3719.92 185.22"/><polygon points="3690.95 185.22 3675.41 185.22 3490.2 0 3505.74 0 3690.95 185.22"/><polygon points="3661.61 185.22 3646.26 185.22 3653.93 177.55 3661.61 185.22"/><polygon points="3647.22 170.84 3632.84 185.22 3617.29 185.22 3639.45 163.06 3647.22 170.84"/><polygon points="3632.73 156.35 3603.86 185.22 3588.33 185.22 3624.97 148.58 3632.73 156.35"/><polygon points="3618.25 141.87 3574.9 185.22 3559.36 185.22 3610.48 134.1 3618.25 141.87"/><polygon points="3603.77 127.39 3545.93 185.22 3530.39 185.22 3595.99 119.61 3603.77 127.39"/><polygon points="3581.32 120.48 3460.84 0 3476.39 0 3589.09 112.71 3581.32 120.48"/><polygon points="3566.84 134.96 3431.88 0 3447.42 0 3574.61 127.19 3566.84 134.96"/><polygon points="3552.36 149.44 3410.78 7.87 3410.78 0 3418.46 0 3560.13 141.67 3552.36 149.44"/><polygon points="3537.87 163.93 3410.78 36.83 3410.78 21.3 3545.64 156.16 3537.87 163.93"/><polygon points="3523.39 178.41 3410.78 65.8 3410.78 50.26 3531.16 170.65 3523.39 178.41"/><polygon points="3516.68 185.13 3516.58 185.22 3501.23 185.22 3410.78 94.77 3410.78 79.23 3516.68 185.13"/><polygon points="3487.8 185.22 3472.26 185.22 3410.78 123.74 3410.78 108.19 3487.8 185.22"/><polygon points="3458.84 185.22 3443.29 185.22 3410.78 152.71 3410.78 137.16 3458.84 185.22"/><polygon points="3429.87 185.22 3414.33 185.22 3410.78 181.67 3410.78 166.13 3429.87 185.22"/><polygon points="4160.19 166.32 4160.19 181.87 4156.84 185.22 4141.3 185.22 4160.19 166.32"/><polygon points="4160.19 137.36 4160.19 152.9 4127.87 185.22 4112.33 185.22 4160.19 137.36"/><polygon points="4160.19 108.39 4160.19 123.93 4098.9 185.22 4083.36 185.22 4160.19 108.39"/><polygon points="4160.19 79.42 4160.19 94.96 4069.94 185.22 4054.4 185.22 4160.19 79.42"/><polygon points="3808.84 185.22 3793.3 185.22 3789.75 181.67 3789.75 166.13 3808.84 185.22"/><polygon points="3837.81 185.22 3822.27 185.22 3789.75 152.7 3789.75 137.17 3837.81 185.22"/><polygon points="3866.78 185.22 3851.24 185.22 3789.75 123.73 3789.75 108.19 3866.78 185.22"/><polygon points="3895.74 185.22 3880.2 185.22 3789.75 94.77 3789.75 79.23 3895.74 185.22"/><polygon points="3924.71 185.22 3909.17 185.22 3789.75 65.8 3789.75 50.26 3924.71 185.22"/><polygon points="3953.68 185.22 3938.13 185.22 3789.75 36.83 3789.75 21.29 3953.68 185.22"/><polygon points="3982.64 185.22 3967.11 185.22 3789.75 7.87 3789.75 0 3797.43 0 3982.64 185.22"/><polygon points="4011.61 185.22 3996.07 185.22 3810.85 0 3826.4 0 4011.61 185.22"/><polygon points="4040.58 185.22 4025.04 185.22 3839.82 0 3855.36 0 4040.58 185.22"/><polygon points="4039.72 170.55 4160.19 50.07 4160.19 65.61 4047.49 178.32 4039.72 170.55"/><polygon points="4025.23 156.06 4160.19 21.1 4160.19 36.65 4033.01 163.84 4025.23 156.06"/><polygon points="4010.75 141.58 4152.33 0 4160.19 0 4160.19 7.68 4018.52 149.35 4010.75 141.58"/><polygon points="3996.27 127.1 4123.36 0 4138.9 0 4004.03 134.87 3996.27 127.1"/><polygon points="3981.78 112.61 4094.39 0 4109.93 0 3989.55 120.39 3981.78 112.61"/><polygon points="3967.3 98.13 4065.42 0 4080.97 0 3975.07 105.9 3967.3 98.13"/><polygon points="3952.81 83.65 4036.46 0 4052 0 3960.59 91.42 3952.81 83.65"/><polygon points="3938.33 69.16 4007.49 0 4023.03 0 3946.1 76.94 3938.33 69.16"/><polygon points="3923.85 54.68 3978.52 0 3994.07 0 3931.62 62.45 3923.85 54.68"/><polygon points="3909.36 40.2 3949.56 0 3965.1 0 3917.14 47.96 3909.36 40.2"/><polygon points="3869.17 0 3884.72 0 3910.23 25.52 3902.46 33.29 3869.17 0"/><polygon points="3898.14 0 3913.68 0 3924.72 11.04 3916.94 18.81 3898.14 0"/><polygon points="3927.11 0 3935.75 0 3931.43 4.32 3927.11 0"/><polygon points="4187.63 185.22 4172.09 185.22 4168.73 181.86 4168.73 166.32 4187.63 185.22"/><polygon points="4216.6 185.22 4201.05 185.22 4172.18 156.35 4179.95 148.58 4216.6 185.22"/><polygon points="4245.56 185.22 4230.02 185.22 4186.67 141.87 4194.44 134.1 4245.56 185.22"/><polygon points="4274.53 185.22 4258.99 185.22 4201.15 127.39 4208.92 119.61 4274.53 185.22"/><polygon points="4183.31 0 4198.86 0 4168.73 30.13 4168.73 14.59 4183.31 0"/><polygon points="4212.28 0 4227.82 0 4168.73 59.1 4168.73 43.55 4212.28 0"/><polygon points="4241.25 0 4256.79 0 4168.73 88.07 4168.73 72.52 4241.25 0"/><polygon points="4270.21 0 4285.76 0 4168.73 117.03 4168.73 101.49 4270.21 0"/><polygon points="4299.18 0 4314.72 0 4168.73 146 4168.73 130.46 4299.18 0"/><polygon points="4328.53 0 4344.08 0 4223.6 120.48 4215.82 112.71 4328.53 0"/><polygon points="4357.5 0 4373.04 0 4238.08 134.97 4230.31 127.19 4357.5 0"/><polygon points="4386.47 0 4402.01 0 4252.56 149.45 4244.79 141.68 4386.47 0"/><polygon points="4415.44 0 4430.98 0 4267.05 163.93 4259.27 156.16 4415.44 0"/><polygon points="4444.4 0 4459.94 0 4281.53 178.42 4273.76 170.65 4444.4 0"/><polygon points="4488.91 0 4303.69 185.22 4288.33 185.22 4288.24 185.13 4473.37 0 4488.91 0"/><polygon points="4517.88 0 4332.66 185.22 4317.11 185.22 4502.34 0 4517.88 0"/><polygon points="4539.17 0 4539.17 7.68 4361.63 185.22 4346.09 185.22 4531.3 0 4539.17 0"/><polygon points="4539.17 21.1 4539.17 36.65 4390.59 185.22 4375.05 185.22 4539.17 21.1"/><polygon points="4539.17 50.07 4539.17 65.61 4419.56 185.22 4404.02 185.22 4539.17 50.07"/><polygon points="4448.72 185.22 4433.37 185.22 4441.04 177.55 4448.72 185.22"/><polygon points="4477.68 185.22 4462.14 185.22 4447.75 170.84 4455.52 163.06 4477.68 185.22"/><polygon points="4506.65 185.22 4491.1 185.22 4462.24 156.35 4470.01 148.58 4506.65 185.22"/><polygon points="4535.61 185.22 4520.07 185.22 4476.72 141.87 4484.49 134.1 4535.61 185.22"/><polygon points="4498.97 119.61 4539.17 159.81 4539.17 175.35 4491.21 127.39 4498.97 119.61"/><polygon points="4539.17 79.42 4539.17 94.97 4513.65 120.48 4505.88 112.71 4539.17 79.42"/><polygon points="4539.17 108.39 4539.17 123.93 4528.14 134.97 4520.36 127.19 4539.17 108.39"/><polygon points="4539.17 137.36 4539.17 146 4534.85 141.68 4539.17 137.36"/><polygon points="4956.99 0 4926.68 30.32 4926.68 14.78 4941.45 0 4956.99 0"/><polygon points="4985.96 0 4926.68 59.28 4926.68 43.74 4970.42 0 4985.96 0"/><polygon points="5014.93 0 4926.68 88.26 4926.68 72.71 4999.38 0 5014.93 0"/><polygon points="5043.89 0 4926.68 117.22 4926.68 101.68 5028.35 0 5043.89 0"/><polygon points="5072.86 0 4926.68 146.19 4926.68 130.65 5057.32 0 5072.86 0"/><polygon points="5101.83 0 4926.68 175.16 4926.68 159.61 5086.29 0 5101.83 0"/><polygon points="5130.8 0 4945.58 185.22 4930.04 185.22 5115.26 0 5130.8 0"/><polygon points="5148.54 11.23 4974.55 185.22 4959 185.22 5140.77 3.46 5148.54 11.23"/><polygon points="5163.02 25.71 5003.51 185.22 4987.97 185.22 5155.25 17.94 5163.02 25.71"/><polygon points="5177.51 40.2 5032.48 185.22 5016.94 185.22 5169.74 32.42 5177.51 40.2"/><polygon points="5297.12 14.59 5297.12 30.13 5266.99 0 5282.53 0 5297.12 14.59"/><polygon points="5297.12 43.55 5297.12 59.1 5238.02 0 5253.57 0 5297.12 43.55"/><polygon points="5297.12 72.52 5297.12 88.07 5209.06 0 5224.6 0 5297.12 72.52"/><polygon points="5297.12 101.49 5297.12 117.03 5180.09 0 5195.63 0 5297.12 101.49"/><polygon points="5297.12 130.46 5297.12 146 5151.12 0 5166.67 0 5297.12 130.46"/><polygon points="5297.12 159.81 5297.12 175.35 5176.64 54.87 5184.41 47.1 5297.12 159.81"/><polygon points="5293.56 185.22 5278.02 185.22 5162.15 69.35 5169.93 61.58 5293.56 185.22"/><polygon points="5264.59 185.22 5249.06 185.22 5147.67 83.84 5155.44 76.07 5264.59 185.22"/><polygon points="5235.63 185.22 5220.09 185.22 5133.19 98.32 5140.96 90.55 5235.63 185.22"/><polygon points="5206.67 185.22 5191.12 185.22 5118.7 112.8 5126.48 105.03 5206.67 185.22"/><polygon points="5177.7 185.22 5162.15 185.22 5104.22 127.29 5111.99 119.52 5177.7 185.22"/><polygon points="5148.73 185.22 5133.19 185.22 5089.74 141.77 5097.51 134 5148.73 185.22"/><polygon points="5119.76 185.22 5104.22 185.22 5075.26 156.25 5083.03 148.49 5119.76 185.22"/><polygon points="5090.79 185.22 5075.26 185.22 5060.77 170.74 5068.54 162.97 5090.79 185.22"/><polygon points="5061.83 185.22 5046.29 185.22 5054.06 177.45 5061.83 185.22"/><polygon points="4918.14 30.32 4887.83 0 4903.37 0 4918.14 14.78 4918.14 30.32"/><polygon points="4918.14 59.28 4858.86 0 4874.4 0 4918.14 43.74 4918.14 59.28"/><polygon points="4918.14 88.25 4829.89 0 4845.43 0 4918.14 72.71 4918.14 88.25"/><polygon points="4918.14 117.22 4800.92 0 4816.47 0 4918.14 101.68 4918.14 117.22"/><polygon points="4918.14 146.19 4771.96 0 4787.5 0 4918.14 130.65 4918.14 146.19"/><polygon points="4918.14 175.16 4742.99 0 4758.53 0 4918.14 159.62 4918.14 175.16"/><polygon points="4914.78 185.22 4899.24 185.22 4714.02 0 4729.57 0 4914.78 185.22"/><polygon points="4885.81 185.22 4870.27 185.22 4685.06 0 4700.6 0 4885.81 185.22"/><polygon points="4856.85 185.22 4841.3 185.22 4656.09 0 4671.63 0 4856.85 185.22"/><polygon points="4827.88 185.22 4812.34 185.22 4627.12 0 4642.66 0 4827.88 185.22"/><polygon points="4798.53 185.22 4783.19 185.22 4790.86 177.55 4798.53 185.22"/><polygon points="4784.15 170.84 4769.76 185.22 4754.22 185.22 4776.38 163.06 4784.15 170.84"/><polygon points="4769.66 156.35 4740.79 185.22 4725.25 185.22 4761.89 148.58 4769.66 156.35"/><polygon points="4755.18 141.87 4711.82 185.22 4696.28 185.22 4747.41 134.1 4755.18 141.87"/><polygon points="4740.69 127.39 4682.86 185.22 4667.31 185.22 4732.92 119.61 4740.69 127.39"/><polygon points="4718.25 120.48 4597.77 0 4613.31 0 4726.02 112.71 4718.25 120.48"/><polygon points="4703.76 134.96 4568.81 0 4584.35 0 4711.54 127.19 4703.76 134.96"/><polygon points="4689.28 149.44 4547.7 7.87 4547.7 0 4555.38 0 4697.05 141.67 4689.28 149.44"/><polygon points="4674.8 163.93 4547.7 36.83 4547.7 21.3 4682.57 156.16 4674.8 163.93"/><polygon points="4660.31 178.41 4547.7 65.8 4547.7 50.26 4668.09 170.65 4660.31 178.41"/><polygon points="4653.6 185.13 4653.51 185.22 4638.15 185.22 4547.7 94.77 4547.7 79.23 4653.6 185.13"/><polygon points="4624.73 185.22 4609.19 185.22 4547.7 123.74 4547.7 108.19 4624.73 185.22"/><polygon points="4595.76 185.22 4580.22 185.22 4547.7 152.71 4547.7 137.16 4595.76 185.22"/><polygon points="4566.8 185.22 4551.25 185.22 4547.7 181.67 4547.7 166.13 4566.8 185.22"/><polygon points="6813.02 166.32 6813.02 181.87 6809.67 185.22 6794.12 185.22 6813.02 166.32"/><polygon points="6813.02 137.36 6813.02 152.9 6780.7 185.22 6765.16 185.22 6813.02 137.36"/><polygon points="6813.02 108.39 6813.02 123.93 6751.73 185.22 6736.19 185.22 6813.02 108.39"/><polygon points="6813.02 79.42 6813.02 94.96 6722.76 185.22 6707.22 185.22 6813.02 79.42"/><polygon points="6461.67 185.22 6446.13 185.22 6442.58 181.67 6442.58 166.13 6461.67 185.22"/><polygon points="6490.63 185.22 6475.1 185.22 6442.58 152.7 6442.58 137.17 6490.63 185.22"/><polygon points="6519.6 185.22 6504.07 185.22 6442.58 123.73 6442.58 108.19 6519.6 185.22"/><polygon points="6548.57 185.22 6533.03 185.22 6442.58 94.77 6442.58 79.23 6548.57 185.22"/><polygon points="6577.54 185.22 6561.99 185.22 6442.58 65.8 6442.58 50.26 6577.54 185.22"/><polygon points="6606.51 185.22 6590.96 185.22 6442.58 36.83 6442.58 21.29 6606.51 185.22"/><polygon points="6635.47 185.22 6619.93 185.22 6442.58 7.87 6442.58 0 6450.26 0 6635.47 185.22"/><polygon points="6664.44 185.22 6648.9 185.22 6463.68 0 6479.23 0 6664.44 185.22"/><polygon points="6677.86 185.22 6492.65 0 6508.19 0 6693.41 185.22 6677.86 185.22"/><polygon points="6692.54 170.55 6813.02 50.07 6813.02 65.61 6700.32 178.32 6692.54 170.55"/><polygon points="6678.06 156.06 6813.02 21.11 6813.02 36.65 6685.83 163.84 6678.06 156.06"/><polygon points="6663.58 141.58 6805.15 0 6813.02 0 6813.02 7.68 6671.35 149.35 6663.58 141.58"/><polygon points="6649.09 127.1 6776.19 0 6791.73 0 6656.86 134.87 6649.09 127.1"/><polygon points="6634.61 112.61 6747.22 0 6762.76 0 6642.38 120.39 6634.61 112.61"/><polygon points="6620.12 98.13 6718.25 0 6733.79 0 6627.9 105.9 6620.12 98.13"/><polygon points="6605.64 83.65 6689.28 0 6704.83 0 6613.41 91.42 6605.64 83.65"/><polygon points="6591.16 69.16 6660.32 0 6675.86 0 6598.93 76.94 6591.16 69.16"/><polygon points="6576.67 54.68 6631.35 0 6646.89 0 6584.44 62.45 6576.67 54.68"/><polygon points="6562.19 40.2 6602.38 0 6617.92 0 6569.96 47.96 6562.19 40.2"/><polygon points="6522 0 6537.54 0 6563.06 25.52 6555.29 33.29 6522 0"/><polygon points="6550.97 0 6566.51 0 6577.54 11.04 6569.77 18.81 6550.97 0"/><polygon points="6579.93 0 6588.57 0 6584.25 4.32 6579.93 0"/><polygon points="6082.5 185.22 6066.96 185.22 6063.6 181.86 6063.6 166.32 6082.5 185.22"/><polygon points="6111.47 185.22 6095.93 185.22 6067.06 156.35 6074.83 148.58 6111.47 185.22"/><polygon points="6140.44 185.22 6124.9 185.22 6081.54 141.87 6089.31 134.1 6140.44 185.22"/><polygon points="6169.41 185.22 6153.86 185.22 6096.03 127.39 6103.8 119.61 6169.41 185.22"/><polygon points="6078.19 0 6093.73 0 6063.6 30.13 6063.6 14.59 6078.19 0"/><polygon points="6107.16 0 6122.7 0 6063.6 59.1 6063.6 43.55 6107.16 0"/><polygon points="6136.12 0 6151.67 0 6063.6 88.07 6063.6 72.52 6136.12 0"/><polygon points="6165.09 0 6180.63 0 6063.6 117.03 6063.6 101.49 6165.09 0"/><polygon points="6194.06 0 6209.6 0 6063.6 146 6063.6 130.46 6194.06 0"/><polygon points="6223.41 0 6238.95 0 6118.47 120.48 6110.7 112.71 6223.41 0"/><polygon points="6252.38 0 6267.92 0 6132.95 134.97 6125.18 127.19 6252.38 0"/><polygon points="6281.35 0 6296.88 0 6147.44 149.45 6139.67 141.68 6281.35 0"/><polygon points="6310.31 0 6325.85 0 6161.92 163.93 6154.15 156.16 6310.31 0"/><polygon points="6339.28 0 6354.82 0 6176.4 178.42 6168.63 170.65 6339.28 0"/><polygon points="6383.79 0 6198.57 185.22 6183.21 185.22 6183.12 185.13 6368.25 0 6383.79 0"/><polygon points="6412.76 0 6227.53 185.22 6211.99 185.22 6397.21 0 6412.76 0"/><polygon points="6434.05 0 6434.05 7.68 6256.5 185.22 6240.96 185.22 6426.18 0 6434.05 0"/><polygon points="6434.05 21.1 6434.05 36.65 6285.47 185.22 6269.93 185.22 6434.05 21.1"/><polygon points="6434.05 50.07 6434.05 65.61 6314.44 185.22 6298.9 185.22 6434.05 50.07"/><polygon points="6343.59 185.22 6328.24 185.22 6335.92 177.55 6343.59 185.22"/><polygon points="6372.56 185.22 6357.01 185.22 6342.63 170.84 6350.4 163.06 6372.56 185.22"/><polygon points="6401.52 185.22 6385.98 185.22 6357.11 156.35 6364.88 148.58 6401.52 185.22"/><polygon points="6430.49 185.22 6414.95 185.22 6371.6 141.87 6379.37 134.1 6430.49 185.22"/><polygon points="6393.85 119.61 6434.05 159.81 6434.05 175.35 6386.08 127.39 6393.85 119.61"/><polygon points="6434.05 79.42 6434.05 94.97 6408.53 120.48 6400.76 112.71 6434.05 79.42"/><polygon points="6434.05 108.39 6434.05 123.93 6423.01 134.97 6415.24 127.19 6434.05 108.39"/><polygon points="6434.05 137.36 6434.05 146 6429.72 141.68 6434.05 137.36"/><polygon points="5714.94 0 5684.63 30.32 5684.63 14.78 5699.4 0 5714.94 0"/><polygon points="5743.91 0 5684.63 59.28 5684.63 43.74 5728.37 0 5743.91 0"/><polygon points="5772.88 0 5684.63 88.26 5684.63 72.71 5757.33 0 5772.88 0"/><polygon points="5801.84 0 5684.63 117.22 5684.63 101.68 5786.31 0 5801.84 0"/><polygon points="5830.81 0 5684.63 146.19 5684.63 130.65 5815.27 0 5830.81 0"/><polygon points="5859.78 0 5684.63 175.16 5684.63 159.61 5844.24 0 5859.78 0"/><polygon points="5888.75 0 5703.53 185.22 5687.99 185.22 5873.21 0 5888.75 0"/><polygon points="5906.49 11.23 5732.5 185.22 5716.95 185.22 5898.72 3.46 5906.49 11.23"/><polygon points="5920.98 25.71 5761.46 185.22 5745.93 185.22 5913.2 17.94 5920.98 25.71"/><polygon points="5935.46 40.2 5790.43 185.22 5774.89 185.22 5927.69 32.42 5935.46 40.2"/><polygon points="6055.07 14.59 6055.07 30.13 6024.94 0 6040.48 0 6055.07 14.59"/><polygon points="6055.07 43.55 6055.07 59.1 5995.97 0 6011.52 0 6055.07 43.55"/><polygon points="6055.07 72.52 6055.07 88.07 5967.01 0 5982.55 0 6055.07 72.52"/><polygon points="6055.07 101.49 6055.07 117.03 5938.04 0 5953.58 0 6055.07 101.49"/><polygon points="6055.07 130.46 6055.07 146 5909.07 0 5924.62 0 6055.07 130.46"/><polygon points="6055.07 159.81 6055.07 175.35 5934.59 54.87 5942.36 47.1 6055.07 159.81"/><polygon points="6051.52 185.22 6035.97 185.22 5920.1 69.35 5927.88 61.58 6051.52 185.22"/><polygon points="6022.54 185.22 6007.01 185.22 5905.62 83.84 5913.39 76.07 6022.54 185.22"/><polygon points="5993.58 185.22 5978.04 185.22 5891.14 98.32 5898.91 90.55 5993.58 185.22"/><polygon points="5964.62 185.22 5949.07 185.22 5876.66 112.8 5884.43 105.03 5964.62 185.22"/><polygon points="5935.65 185.22 5920.1 185.22 5862.17 127.29 5869.94 119.52 5935.65 185.22"/><polygon points="5906.68 185.22 5891.14 185.22 5847.69 141.77 5855.46 134 5906.68 185.22"/><polygon points="5877.71 185.22 5862.17 185.22 5833.21 156.25 5840.98 148.49 5877.71 185.22"/><polygon points="5848.74 185.22 5833.21 185.22 5818.72 170.74 5826.49 162.97 5848.74 185.22"/><polygon points="5819.78 185.22 5804.24 185.22 5812.01 177.45 5819.78 185.22"/><polygon points="5676.09 30.32 5645.78 0 5661.32 0 5676.09 14.78 5676.09 30.32"/><polygon points="5676.09 59.28 5616.81 0 5632.36 0 5676.09 43.74 5676.09 59.28"/><polygon points="5676.09 88.25 5587.84 0 5603.38 0 5676.09 72.71 5676.09 88.25"/><polygon points="5676.09 117.22 5558.87 0 5574.42 0 5676.09 101.68 5676.09 117.22"/><polygon points="5676.09 146.19 5529.91 0 5545.45 0 5676.09 130.65 5676.09 146.19"/><polygon points="5676.09 175.16 5500.94 0 5516.48 0 5676.09 159.62 5676.09 175.16"/><polygon points="5672.73 185.22 5657.19 185.22 5471.97 0 5487.52 0 5672.73 185.22"/><polygon points="5643.77 185.22 5628.22 185.22 5443.01 0 5458.55 0 5643.77 185.22"/><polygon points="5614.8 185.22 5599.25 185.22 5414.04 0 5429.58 0 5614.8 185.22"/><polygon points="5585.83 185.22 5570.29 185.22 5385.07 0 5400.61 0 5585.83 185.22"/><polygon points="5556.48 185.22 5541.14 185.22 5548.81 177.55 5556.48 185.22"/><polygon points="5542.1 170.84 5527.71 185.22 5512.17 185.22 5534.33 163.06 5542.1 170.84"/><polygon points="5527.61 156.35 5498.74 185.22 5483.2 185.22 5519.84 148.58 5527.61 156.35"/><polygon points="5513.13 141.87 5469.77 185.22 5454.23 185.22 5505.36 134.1 5513.13 141.87"/><polygon points="5498.64 127.39 5440.81 185.22 5425.26 185.22 5490.87 119.61 5498.64 127.39"/><polygon points="5476.2 120.48 5355.72 0 5371.27 0 5483.97 112.71 5476.2 120.48"/><polygon points="5461.71 134.96 5326.76 0 5342.3 0 5469.49 127.19 5461.71 134.96"/><polygon points="5447.23 149.44 5305.65 7.87 5305.65 0 5313.33 0 5455 141.67 5447.23 149.44"/><polygon points="5432.75 163.93 5305.65 36.83 5305.65 21.3 5440.52 156.16 5432.75 163.93"/><polygon points="5418.26 178.41 5305.65 65.8 5305.65 50.26 5426.04 170.65 5418.26 178.41"/><polygon points="5411.55 185.13 5411.46 185.22 5396.1 185.22 5305.65 94.77 5305.65 79.23 5411.55 185.13"/><polygon points="5382.68 185.22 5367.14 185.22 5305.65 123.74 5305.65 108.19 5382.68 185.22"/><polygon points="5353.71 185.22 5338.17 185.22 5305.65 152.71 5305.65 137.16 5353.71 185.22"/><polygon points="5324.75 185.22 5309.2 185.22 5305.65 181.67 5305.65 166.13 5324.75 185.22"/><polygon points="7191.99 30.32 7161.68 0 7177.22 0 7191.99 14.78 7191.99 30.32"/><polygon points="7191.99 59.28 7132.71 0 7148.26 0 7191.99 43.74 7191.99 59.28"/><polygon points="7191.99 88.25 7103.74 0 7119.28 0 7191.99 72.71 7191.99 88.25"/><polygon points="7191.99 117.22 7074.77 0 7090.32 0 7191.99 101.68 7191.99 117.22"/><polygon points="7191.99 146.19 7045.81 0 7061.35 0 7191.99 130.65 7191.99 146.19"/><polygon points="7191.99 175.16 7016.84 0 7032.39 0 7191.99 159.62 7191.99 175.16"/><polygon points="7188.63 185.22 7173.09 185.22 6987.88 0 7003.42 0 7188.63 185.22"/><polygon points="7159.67 185.22 7144.12 185.22 6958.91 0 6974.45 0 7159.67 185.22"/><polygon points="7130.7 185.22 7115.15 185.22 6929.94 0 6945.48 0 7130.7 185.22"/><polygon points="7101.73 185.22 7086.19 185.22 6900.98 0 6916.51 0 7101.73 185.22"/><polygon points="7072.39 185.22 7057.04 185.22 7064.71 177.55 7072.39 185.22"/><polygon points="7058 170.84 7043.61 185.22 7028.07 185.22 7050.23 163.06 7058 170.84"/><polygon points="7043.51 156.35 7014.64 185.22 6999.1 185.22 7035.74 148.58 7043.51 156.35"/><polygon points="7029.03 141.87 6985.68 185.22 6970.14 185.22 7021.26 134.1 7029.03 141.87"/><polygon points="7014.54 127.39 6956.71 185.22 6941.16 185.22 7006.77 119.61 7014.54 127.39"/><polygon points="6992.1 120.48 6871.62 0 6887.17 0 6999.87 112.71 6992.1 120.48"/><polygon points="6977.61 134.96 6842.66 0 6858.2 0 6985.39 127.19 6977.61 134.96"/><polygon points="6963.13 149.44 6821.55 7.87 6821.55 0 6829.23 0 6970.9 141.67 6963.13 149.44"/><polygon points="6948.65 163.93 6821.55 36.83 6821.55 21.3 6956.42 156.16 6948.65 163.93"/><polygon points="6934.16 178.41 6821.55 65.8 6821.55 50.26 6941.94 170.65 6934.16 178.41"/><polygon points="6927.45 185.13 6927.36 185.22 6912 185.22 6821.55 94.77 6821.55 79.23 6927.45 185.13"/><polygon points="6898.58 185.22 6883.04 185.22 6821.55 123.74 6821.55 108.19 6898.58 185.22"/><polygon points="6869.61 185.22 6854.07 185.22 6821.55 152.71 6821.55 137.16 6869.61 185.22"/><polygon points="6840.65 185.22 6825.1 185.22 6821.55 181.67 6821.55 166.13 6840.65 185.22"/><polygon points="7570.97 30.32 7540.65 0 7556.2 0 7570.97 14.78 7570.97 30.32"/><polygon points="7570.97 59.28 7511.69 0 7527.23 0 7570.97 43.74 7570.97 59.28"/><polygon points="7570.97 88.25 7482.72 0 7498.26 0 7570.97 72.71 7570.97 88.25"/><polygon points="7570.97 117.22 7453.75 0 7469.29 0 7570.97 101.68 7570.97 117.22"/><polygon points="7570.97 146.19 7424.78 0 7440.33 0 7570.97 130.65 7570.97 146.19"/><polygon points="7570.97 175.16 7395.82 0 7411.36 0 7570.97 159.62 7570.97 175.16"/><polygon points="7567.61 185.22 7552.07 185.22 7366.85 0 7382.39 0 7567.61 185.22"/><polygon points="7538.64 185.22 7523.1 185.22 7337.88 0 7353.43 0 7538.64 185.22"/><polygon points="7509.67 185.22 7494.13 185.22 7308.92 0 7324.46 0 7509.67 185.22"/><polygon points="7480.71 185.22 7465.16 185.22 7279.95 0 7295.49 0 7480.71 185.22"/><polygon points="7451.36 185.22 7436.01 185.22 7443.69 177.55 7451.36 185.22"/><polygon points="7436.97 170.84 7422.59 185.22 7407.05 185.22 7429.2 163.06 7436.97 170.84"/><polygon points="7422.49 156.35 7393.62 185.22 7378.08 185.22 7414.72 148.58 7422.49 156.35"/><polygon points="7408 141.87 7364.65 185.22 7349.11 185.22 7400.24 134.1 7408 141.87"/><polygon points="7393.52 127.39 7335.68 185.22 7320.14 185.22 7385.75 119.61 7393.52 127.39"/><polygon points="7371.07 120.48 7250.6 0 7266.14 0 7378.85 112.71 7371.07 120.48"/><polygon points="7356.59 134.96 7221.63 0 7237.18 0 7364.36 127.19 7356.59 134.96"/><polygon points="7342.11 149.44 7200.53 7.87 7200.53 0 7208.21 0 7349.88 141.67 7342.11 149.44"/><polygon points="7327.62 163.93 7200.53 36.83 7200.53 21.3 7335.4 156.16 7327.62 163.93"/><polygon points="7313.14 178.41 7200.53 65.8 7200.53 50.26 7320.91 170.65 7313.14 178.41"/><polygon points="7306.43 185.13 7306.34 185.22 7290.98 185.22 7200.53 94.77 7200.53 79.23 7306.43 185.13"/><polygon points="7277.56 185.22 7262.01 185.22 7200.53 123.74 7200.53 108.19 7277.56 185.22"/><polygon points="7248.59 185.22 7233.05 185.22 7200.53 152.71 7200.53 137.16 7248.59 185.22"/><polygon points="7219.62 185.22 7204.08 185.22 7200.53 181.67 7200.53 166.13 7219.62 185.22"/><polygon points="7949.95 166.32 7949.95 181.87 7946.59 185.22 7931.05 185.22 7949.95 166.32"/><polygon points="7949.95 137.36 7949.95 152.9 7917.63 185.22 7902.08 185.22 7949.95 137.36"/><polygon points="7949.95 108.39 7949.95 123.93 7888.65 185.22 7873.11 185.22 7949.95 108.39"/><polygon points="7949.95 79.42 7949.95 94.96 7859.69 185.22 7844.15 185.22 7949.95 79.42"/><polygon points="7598.6 185.22 7583.05 185.22 7579.51 181.67 7579.51 166.13 7598.6 185.22"/><polygon points="7627.56 185.22 7612.02 185.22 7579.51 152.7 7579.51 137.17 7627.56 185.22"/><polygon points="7656.53 185.22 7640.99 185.22 7579.51 123.73 7579.51 108.19 7656.53 185.22"/><polygon points="7685.5 185.22 7669.95 185.22 7579.51 94.77 7579.51 79.23 7685.5 185.22"/><polygon points="7714.46 185.22 7698.92 185.22 7579.51 65.8 7579.51 50.26 7714.46 185.22"/><polygon points="7743.43 185.22 7727.89 185.22 7579.51 36.83 7579.51 21.29 7743.43 185.22"/><polygon points="7772.4 185.22 7756.86 185.22 7579.51 7.87 7579.51 0 7587.18 0 7772.4 185.22"/><polygon points="7801.36 185.22 7785.82 185.22 7600.61 0 7616.15 0 7801.36 185.22"/><polygon points="7830.34 185.22 7814.79 185.22 7629.57 0 7645.12 0 7830.34 185.22"/><polygon points="7829.47 170.55 7949.95 50.07 7949.95 65.61 7837.24 178.32 7829.47 170.55"/><polygon points="7814.99 156.06 7949.95 21.1 7949.95 36.65 7822.76 163.84 7814.99 156.06"/><polygon points="7800.5 141.58 7942.08 0 7949.95 0 7949.95 7.68 7808.27 149.35 7800.5 141.58"/><polygon points="7786.02 127.1 7913.11 0 7928.65 0 7793.79 134.87 7786.02 127.1"/><polygon points="7771.54 112.61 7884.15 0 7899.69 0 7779.3 120.39 7771.54 112.61"/><polygon points="7757.05 98.13 7855.18 0 7870.72 0 7764.82 105.9 7757.05 98.13"/><polygon points="7742.56 83.65 7826.21 0 7841.75 0 7750.34 91.42 7742.56 83.65"/><polygon points="7728.08 69.16 7797.24 0 7812.79 0 7735.85 76.94 7728.08 69.16"/><polygon points="7713.6 54.68 7768.28 0 7783.82 0 7721.37 62.45 7713.6 54.68"/><polygon points="7699.11 40.2 7739.31 0 7754.85 0 7706.89 47.96 7699.11 40.2"/><polygon points="7658.93 0 7674.47 0 7699.98 25.52 7692.21 33.29 7658.93 0"/><polygon points="7687.89 0 7703.44 0 7714.47 11.04 7706.7 18.81 7687.89 0"/><polygon points="7716.86 0 7725.5 0 7721.18 4.32 7716.86 0"/><polygon points="7977.38 185.22 7961.84 185.22 7958.48 181.86 7958.48 166.32 7977.38 185.22"/><polygon points="8006.35 185.22 7990.81 185.22 7961.94 156.35 7969.71 148.58 8006.35 185.22"/><polygon points="8035.31 185.22 8019.77 185.22 7976.42 141.87 7984.19 134.1 8035.31 185.22"/><polygon points="8064.28 185.22 8048.74 185.22 7990.9 127.39 7998.68 119.61 8064.28 185.22"/><polygon points="7973.07 0 7988.61 0 7958.48 30.13 7958.48 14.59 7973.07 0"/><polygon points="8002.03 0 8017.58 0 7958.48 59.1 7958.48 43.55 8002.03 0"/><polygon points="8031 0 8046.54 0 7958.48 88.07 7958.48 72.52 8031 0"/><polygon points="8059.97 0 8075.51 0 7958.48 117.03 7958.48 101.49 8059.97 0"/><polygon points="8088.93 0 8104.48 0 7958.48 146 7958.48 130.46 8088.93 0"/><polygon points="8118.28 0 8133.83 0 8013.35 120.48 8005.58 112.71 8118.28 0"/><polygon points="8147.25 0 8162.8 0 8027.83 134.97 8020.06 127.19 8147.25 0"/><polygon points="8176.22 0 8191.76 0 8042.31 149.45 8034.54 141.68 8176.22 0"/><polygon points="8205.19 0 8220.73 0 8056.8 163.93 8049.03 156.16 8205.19 0"/><polygon points="8234.16 0 8249.69 0 8071.28 178.42 8063.51 170.65 8234.16 0"/><polygon points="8278.67 0 8093.44 185.22 8078.09 185.22 8077.99 185.13 8263.12 0 8278.67 0"/><polygon points="8307.63 0 8122.41 185.22 8106.87 185.22 8292.09 0 8307.63 0"/><polygon points="8328.92 0 8328.92 7.68 8151.38 185.22 8135.84 185.22 8321.06 0 8328.92 0"/><polygon points="8328.92 21.1 8328.92 36.65 8180.34 185.22 8164.81 185.22 8328.92 21.1"/><polygon points="8328.92 50.07 8328.92 65.61 8209.32 185.22 8193.77 185.22 8328.92 50.07"/><polygon points="8238.47 185.22 8223.12 185.22 8230.79 177.55 8238.47 185.22"/><polygon points="8267.43 185.22 8251.89 185.22 8237.5 170.84 8245.28 163.06 8267.43 185.22"/><polygon points="8296.4 185.22 8280.86 185.22 8251.99 156.35 8259.76 148.58 8296.4 185.22"/><polygon points="8325.37 185.22 8309.82 185.22 8266.47 141.87 8274.24 134.1 8325.37 185.22"/><polygon points="8288.73 119.61 8328.92 159.81 8328.92 175.35 8280.96 127.39 8288.73 119.61"/><polygon points="8328.92 79.42 8328.92 94.97 8303.41 120.48 8295.63 112.71 8328.92 79.42"/><polygon points="8328.92 108.39 8328.92 123.93 8317.89 134.97 8310.12 127.19 8328.92 108.39"/><polygon points="8328.92 137.36 8328.92 146 8324.6 141.68 8328.92 137.36"/><polygon points="8746.75 0 8716.43 30.32 8716.43 14.78 8731.2 0 8746.75 0"/><polygon points="8775.71 0 8716.43 59.28 8716.43 43.74 8760.17 0 8775.71 0"/><polygon points="8804.68 0 8716.43 88.26 8716.43 72.71 8789.14 0 8804.68 0"/><polygon points="8833.65 0 8716.43 117.22 8716.43 101.68 8818.11 0 8833.65 0"/><polygon points="8862.61 0 8716.43 146.19 8716.43 130.65 8847.07 0 8862.61 0"/><polygon points="8891.58 0 8716.43 175.16 8716.43 159.61 8876.05 0 8891.58 0"/><polygon points="8920.55 0 8735.33 185.22 8719.79 185.22 8905.01 0 8920.55 0"/><polygon points="8938.29 11.23 8764.3 185.22 8748.75 185.22 8930.52 3.46 8938.29 11.23"/><polygon points="8952.78 25.71 8793.27 185.22 8777.73 185.22 8945.01 17.94 8952.78 25.71"/><polygon points="8967.26 40.2 8822.23 185.22 8806.69 185.22 8959.49 32.42 8967.26 40.2"/><polygon points="9086.87 14.59 9086.87 30.13 9056.74 0 9072.28 0 9086.87 14.59"/><polygon points="9086.87 43.55 9086.87 59.1 9027.77 0 9043.32 0 9086.87 43.55"/><polygon points="9086.87 72.52 9086.87 88.07 8998.81 0 9014.35 0 9086.87 72.52"/><polygon points="9086.87 101.49 9086.87 117.03 8969.84 0 8985.39 0 9086.87 101.49"/><polygon points="9086.87 130.46 9086.87 146 8940.88 0 8956.42 0 9086.87 130.46"/><polygon points="9086.87 159.81 9086.87 175.35 8966.39 54.87 8974.16 47.1 9086.87 159.81"/><polygon points="9083.32 185.22 9067.77 185.22 8951.91 69.35 8959.68 61.58 9083.32 185.22"/><polygon points="9054.35 185.22 9038.81 185.22 8937.42 83.84 8945.2 76.07 9054.35 185.22"/><polygon points="9025.38 185.22 9009.84 185.22 8922.94 98.32 8930.71 90.55 9025.38 185.22"/><polygon points="8996.42 185.22 8980.87 185.22 8908.46 112.8 8916.23 105.03 8996.42 185.22"/><polygon points="8967.45 185.22 8951.91 185.22 8893.97 127.29 8901.75 119.52 8967.45 185.22"/><polygon points="8938.49 185.22 8922.94 185.22 8879.49 141.77 8887.26 134 8938.49 185.22"/><polygon points="8909.51 185.22 8893.97 185.22 8865.01 156.25 8872.78 148.49 8909.51 185.22"/><polygon points="8880.55 185.22 8865.01 185.22 8850.52 170.74 8858.3 162.97 8880.55 185.22"/><polygon points="8851.58 185.22 8836.05 185.22 8843.81 177.45 8851.58 185.22"/><polygon points="8707.9 30.32 8677.58 0 8693.12 0 8707.9 14.78 8707.9 30.32"/><polygon points="8707.9 59.28 8648.61 0 8664.16 0 8707.9 43.74 8707.9 59.28"/><polygon points="8707.9 88.25 8619.64 0 8635.19 0 8707.9 72.71 8707.9 88.25"/><polygon points="8707.9 117.22 8590.68 0 8606.22 0 8707.9 101.68 8707.9 117.22"/><polygon points="8707.9 146.19 8561.71 0 8577.25 0 8707.9 130.65 8707.9 146.19"/><polygon points="8707.9 175.16 8532.74 0 8548.29 0 8707.9 159.62 8707.9 175.16"/><polygon points="8704.53 185.22 8688.99 185.22 8503.78 0 8519.32 0 8704.53 185.22"/><polygon points="8675.57 185.22 8660.02 185.22 8474.81 0 8490.35 0 8675.57 185.22"/><polygon points="8646.6 185.22 8631.06 185.22 8445.84 0 8461.38 0 8646.6 185.22"/><polygon points="8617.63 185.22 8602.09 185.22 8416.88 0 8432.42 0 8617.63 185.22"/><polygon points="8588.29 185.22 8572.94 185.22 8580.61 177.55 8588.29 185.22"/><polygon points="8573.9 170.84 8559.51 185.22 8543.97 185.22 8566.13 163.06 8573.9 170.84"/><polygon points="8559.41 156.35 8530.54 185.22 8515 185.22 8551.65 148.58 8559.41 156.35"/><polygon points="8544.93 141.87 8501.58 185.22 8486.04 185.22 8537.16 134.1 8544.93 141.87"/><polygon points="8530.44 127.39 8472.61 185.22 8457.07 185.22 8522.67 119.61 8530.44 127.39"/><polygon points="8508 120.48 8387.52 0 8403.07 0 8515.77 112.71 8508 120.48"/><polygon points="8493.52 134.96 8358.56 0 8374.1 0 8501.29 127.19 8493.52 134.96"/><polygon points="8479.03 149.44 8337.45 7.87 8337.45 0 8345.13 0 8486.81 141.67 8479.03 149.44"/><polygon points="8464.55 163.93 8337.45 36.83 8337.45 21.3 8472.32 156.16 8464.55 163.93"/><polygon points="8450.07 178.41 8337.45 65.8 8337.45 50.26 8457.84 170.65 8450.07 178.41"/><polygon points="8443.35 185.13 8443.26 185.22 8427.9 185.22 8337.46 94.77 8337.46 79.23 8443.35 185.13"/><polygon points="8414.48 185.22 8398.94 185.22 8337.46 123.74 8337.46 108.19 8414.48 185.22"/><polygon points="8385.51 185.22 8369.97 185.22 8337.46 152.71 8337.46 137.16 8385.51 185.22"/><polygon points="8356.55 185.22 8341 185.22 8337.46 181.67 8337.46 166.13 8356.55 185.22"/></svg>