<?xml version="1.0" encoding="utf-8"?>
<!-- Generator: Adobe Illustrator 23.0.6, SVG Export Plug-In . SVG Version: 6.00 Build 0)  -->
<svg version="1.1" id="레이어_1" xmlns="http://www.w3.org/2000/svg" xmlns:xlink="http://www.w3.org/1999/xlink" x="0px"
	 y="0px" viewBox="0 0 1661.7 1351" style="enable-background:new 0 0 1661.7 1351;" xml:space="preserve">
<style type="text/css">
	.st0{fill:#FFFFFF;}
</style>
<title>twitter</title>
<path class="st0" d="M522.6,1351c627.1,0,970-519.7,970-970.4c0-14.8-0.3-29.5-1-44.1c66.7-48.3,124.3-108.1,170.1-176.6
	c-62.2,27.6-128.2,45.7-195.8,53.7c71.2-42.6,124.5-109.7,150-188.6c-66.9,39.7-140.1,67.7-216.5,82.8
	C1334.9,38.9,1244.8-0.1,1150.5,0c-188.3,0-341,152.7-341,341c-0.1,26.2,2.9,52.3,8.8,77.8C535,404.5,283.8,268.8,115.6,62.4
	C25.2,218.3,71.4,417.6,221.2,517.8c-54.1-1.7-107.1-16.3-154.4-42.7c0,1.4,0,2.8,0,4.3c0,165.2,117.5,303.1,273.5,334.3
	c-50.2,13.7-102.9,15.7-154,5.8c43.4,135.5,169.3,234.1,318.5,236.9c-120.8,94.8-269.9,146.2-423.4,146c-27.2,0-54.3-1.6-81.3-4.7
	C155.8,1298,337.3,1351.1,522.6,1351"/>
</svg>
