<?xml version="1.0" encoding="utf-8"?>
<!-- Generator: Adobe Illustrator 23.0.6, SVG Export Plug-In . SVG Version: 6.00 Build 0)  -->
<svg version="1.1"
	 id="svg2" xmlns:cc="http://creativecommons.org/ns#" xmlns:dc="http://purl.org/dc/elements/1.1/" xmlns:rdf="http://www.w3.org/1999/02/22-rdf-syntax-ns#" xmlns:svg="http://www.w3.org/2000/svg"
	 xmlns="http://www.w3.org/2000/svg" xmlns:xlink="http://www.w3.org/1999/xlink" x="0px" y="0px" viewBox="0 0 350 179"
	 style="enable-background:new 0 0 350 179;" xml:space="preserve">
<style type="text/css">
	.st0{fill:#FFFFFF;}
	.st1{fill:#001F47;}
	.st2{fill:#DADADA;}
	.st3{fill:#DD0741;}
</style>
<g id="layer1" transform="translate(-149.25084,-91.694207)">
	<g id="g3344" transform="matrix(0.7526741,0,0,-0.7526741,131.56627,373.90221)">
		<g id="g3346">
			<g>
				<g id="g3348">
					<g id="g3354" transform="translate(368.012,374.9405)">
						<path id="path3356" class="st0" d="M0,0v-70.9c3-1.3,6.9-3.3,9.9-4.6v1c0,10.9,3.3,9.6,10.6,12.9c2,0.7,2.3,4.3,5.3,4.6
							c3.6,0.3,11.5-1,14.8-2.6c2-1,2.3-2.3,3.3-4.3c0.7-2,4.3-3.3,5.3-5.6c1.7-4.6,0-10.9-4.9-12.5c-1.7-0.7-9.2-0.3-9.2-0.3v-5.3
							v-2c0,0,1.6-0.7,2.3-0.7c12.5-3.3,81.5-24.1,83.1-27.7c0.3-1-0.7-1-0.7-1c-1.6-0.3-45.2,9.9-53.1,11.2
							c-9.2,1.7-16.5,3.3-28.4,4.9v-0.7c0-3.6-0.7-3.6-4-4.9v-0.7c4-0.7,16.5-2.6,19.1-4.6c3-2,9.9,0.3,14.8-6.3
							c1.3-1.7,1.3-8.9,0-10.9c-2-3-4.3-1.6-6.9-2c-1.6-0.3-2.6-2-4-2.6c-1.3-0.7-3.3-0.3-4.9-0.7c-3.6,0-4.9,3.3-7.6,4.9
							c-1.3,1-2.6,0.3-4.3,0.7c-2,0.7-3.6,3-5.3,4c-1,0.7-3.6,0.3-4.6-0.3c-6.6-4-23.8,0-30.7,4.3l0.3-42.9c0,0,0-7.3-4.3-14.5
							c-21.1-36.3-65.7-57.7-107.6-57.7h-0.7c-41.9,0-86.4,20.8-107.6,57.1c-4.6,7.3-4.6,15.2-4.6,15.2l0.3,42.9
							c-6.6-4.3-24.1-8.2-30.7-4.3c-1,0.7-3.6,0.7-4.6,0.3c-2-1-3.3-3.3-5.3-4c-1.3-0.3-3,0.3-4.3-0.7c-2.6-1.6-4-5.3-7.6-4.9
							c-1.6,0-3.6-0.3-4.9,0.7c-1.3,0.7-2.3,2.3-4,2.6c-3,0.3-4.9-1-6.9,2c-1.3,1.6-1.3,8.9,0,10.9c4.9,6.6,11.9,4.3,14.8,6.3
							c2.6,2,15.2,3.6,19.1,4.6v0.7c-3.3,1-4,1-4,4.9v0.7c-11.9-1.6-19.1-3.3-28.4-4.9c-8.2-1.6-51.5-11.5-53.1-11.2
							c0,0-1,0.3-0.7,1c1.6,4,70.6,24.4,83.1,27.7c0.7,0.3,2.3,0.7,2.3,0.7v2v5.3c0,0-7.6-0.3-9.2,0.3c-4.6,2-6.6,8.2-4.9,12.5
							c1,2.3,4.6,4,5.3,5.6c0.7,2,1.3,3.3,3.3,4.3c3.3,1.7,11.2,3,14.8,2.6c3-0.3,3.6-3.6,5.3-4.6c7.3-3.3,10.6-1.7,10.6-12.9v-1
							c3,1.3,6.9,3.3,9.9,4.6l0,70.9H0z"/>
					</g>
					<g id="g3358" transform="translate(304.0051,195.1275)">
						<path id="path3360" class="st1" d="M0,0l4-6.3l-2.6-2l-8.9,28l-2.3,3.3l-9.9-6.3l6.3-9.9l3.6,2.3l-4,6.3l2.6,1.6l8.9-28
							L0-14.2l9.9,6.3L3.6,2L0,0z M35,27.4l-12.5,7.9l-3-4.9l3.6-2.3l1,1.3l10.2-6.6l-1.7-2.6L7.9,35.3l1.7,2.6l4.9-3l2.3,3.6
							l-3.6,2.3c-1,0.7-2,1-3,1c-2,0-4-1-4.9-2.6c-1.7-2.6-1-6.3,2-8.2L29,17.2c1-0.7,2-1,3-1c2,0,4,1,4.9,2.6
							C38.6,21.8,37.6,25.4,35,27.4 M-25.7-2.3l-3.6,11.5l3.3,1l3.6-11.5C-22.4-1.3-25.7-2.3-25.7-2.3z M-22.1,11.5
							c-0.7,1.6-2,3-4,3c-0.3,0-0.7,0-1.3-0.3l-7.3-2.3l10.6-35v-0.3l4,1.3l-4.6,15.5l3.3,1c1,0.3,2,1,2.3,2c0.7,1,0.7,2,0.3,3
							L-22.1,11.5z M-1.6,30l-3-3L21.1,1l3,3L-1.6,30z M-61,8.2l-3.3-28.7c-0.3-2.3,1.3-4.3,3.6-4.3l7.6-1l0.7,4.3l-7.6,1l1.3,11.9
							l5.6-0.7l0.7,4.3l-5.6,0.3l1.3,11.9l7.6-1l0.7,4.3l-7.6,1C-58.7,11.9-60.7,10.2-61,8.2 M-73.2,16.2l-11.9-35l11.2-4l4,11.2
							l-4,1.3l-2.3-7.3l-3,1l10.6,30.7L-73.2,16.2z M-44.2,10.9l3.3-36.6l4.3,0.3l-3.3,36.6L-44.2,10.9z"/>
					</g>
					<g id="g3362" transform="translate(160.1548,196.7772)">
						<path id="path3364" class="st1" d="M0,0L0,0c21.8-32.3,57.4-48.2,96-48.2c38.3,0,74.2,15.8,95.7,48.2v0.3
							c3.3,5.6,4.6,9.2,4.6,21.1v31.3h-5.9V21.4c0-11.2-1.3-13.5-4-18.1c-19.8-29.4-53.1-45.5-91.1-45.5
							c-37.9,0-71.3,16.2-91.1,45.5c-2.6,4.6-4,7.3-4,18.1v31.3h-5.9V21.4C-4.6,9.6-3.3,5.6,0,0"/>
					</g>
					<g id="g3366" transform="translate(153.886,308.6241)">
						<path id="path3368" class="st1" d="M0,0v56.4h204.2V0l3.3-1.7v61.4H-3V-1.6L0,0z"/>
					</g>
					<g id="g3370" transform="translate(155.5357,363.7228)">
						<path id="path3372" class="st1" d="M0,0v-54.4l5.6,2.6v45.9h189.7v-45.9l5.9-2.6V0H0z"/>
					</g>
					<g id="g3374" transform="translate(358.114,249.2364)">
						<path id="path3376" class="st1" d="M0,0v-31.3c0-12.2-1.3-15.8-4.9-21.8v-0.3v-0.3c-21.8-32.7-58.1-48.8-97-48.8
							s-75.2,16.2-97,48.8v0.3v0.3c-3.3,5.9-4.9,9.6-4.9,21.8V0h-3.3v-31.3c0-12.9,1.6-17.2,5.3-23.4l0.3-0.3l0.3-0.3
							c22.4-33.3,59.7-50.1,99.6-50.1S-24.4-88.8-2-55.4l0.3,0.3l0.3,0.3C2.3-48.5,4-44.2,4-31.3L4,0H0z"/>
					</g>
					<g id="g3378" transform="translate(255.8351,337.3282)">
						<path id="path3380" class="st1" d="M0,0c6.9,0,13.9-1.3,20.1-4c-0.3-1-1-4-3-7.6C5.9-10.2-6.6-11.2-6.6-11.2l-10.2,8.6
							C-11.5-1-5.9,0,0,0"/>
					</g>
					<g id="g3382" transform="translate(303.3453,258.8044)">
						<path id="path3384" class="st2" d="M0,0c-4.3,1-7.9,3-12.2,4.3c-1.3-0.7-2.3-1.3-3-1.7c-4.6-5.3-10.2-9.6-16.5-12.9
							c-15.5-8.2-34.3-8.2-49.8-1.3c-3.3,1.6-6.6,3.3-9.6,5.6c9.2-12.5,23.8-21.1,40.3-22.4h1.7h0.3c10.6,0,20.5,3,29,8.2
							C-11.2-15.8-4.6-8.9,0,0h0.3H0z"/>
					</g>
					<g id="g3386" transform="translate(275.631,291.7976)">
						<path id="path3388" class="st1" d="M0,0c2.6-5.9,6.3-11.9,8.6-15.8c3,4.6,3.6,7.9,6.3,15.8c1,3,4.9,7.3,8.6,10.9
							c-5.6,3.6-12.9,6.9-12.9,6.9C4.9,9.9,0,0,0,0"/>
					</g>
					<g id="g3390" transform="translate(219.5425,323.1412)">
						<path id="path3392" class="st1" d="M0,0c-4.9-4.3-8.6-9.9-11.5-15.8c0.7-0.7,1.3-1,2-1.6c0.3,0.7,1,1,1.3,1.6
							C-4.9-8.2-1.3-2,0,0"/>
					</g>
					<g id="g3394" transform="translate(252.5357,291.4677)">
						<path id="path3396" class="st1" d="M0,0c0,0-6.6,10.6-13.5,18.5c0,0-14.8-6.6-20.1-9.6c0,0-0.3-2-0.3-4.9
							c3.3-5.6,4.9-11.5,8.9-20.1c1-0.7,1.6-1.6,2.6-2.3c3-0.7,6.3-1.6,9.9-2.6C-12.5-21.1-3.3-6.3,0,0"/>
					</g>
					<g id="g3398" transform="translate(251.216,251.5459)">
						<path id="path3400" class="st1" d="M0,0l23.1,0.7l4.6-12.5c-8.9-5.3-19.5-7.9-19.5-7.9C-3-17.5-9.2-12.5-9.2-12.5L0,0z"/>
					</g>
					<g id="g3402" transform="translate(213.2738,260.784)">
						<path id="path3404" class="st1" d="M0,0c-2-0.7-4-1.7-4.9-2h-0.3c2-3.3,4-6.6,6.6-9.2c2.3-2.6,4.9-4.6,7.6-6.6
							c0.7,0.3,1,1,1.6,1.3C10.6-16.5,4-6.9,0,0"/>
					</g>
					<g id="g3406" transform="translate(212.9439,267.0527)">
						<path id="path3408" class="st3" d="M0,0c-0.7,0-2-0.3-2.3,0C-2.6,0.7-2,1.3-1.6,2C-1,3,0,3,1.3,3c0.3-0.3,0.3-0.3,0.3-0.7
							C1,1.7,0.7,0.7,0,0 M-25.7-10.6c-0.3,0-0.7,0.3-0.7,0.7c0.7,2,1.6,4.9,0,7.3l-2.3,4.9c0.3,0.7,1,0.7,1.6,1c0.3,0,1-0.3,1-1
							l2.6-6.3C-22.4-6.9-24.1-9.2-25.7-10.6 M-78.2-8.9l-9.9-2.6c-0.3,0-0.7,0-0.7,0.3s0.3,1,1,1c2.6,0.7,4.9,1,7.3,1.3
							c1.6,0.3,2,0.3,3.3,0.3C-77.2-8.6-78.2-8.9-78.2-8.9z M-7.3,29.7c-9.6-1.3-29.4-4.3-29.4-4.3l1.3,0.7l28.7,4.6
							c0.3,0,0.7,0,1-0.3C-5.6,29.7-6.9,29.7-7.3,29.7 M-40.6,35c0.7,0.7,1.3,1,2,1.6c1,0,1.3-0.3,2.3,0c2,0.7,10.6,3,12.2,2.6
							c0-0.7-0.7-0.7-1-0.7C-30,37-35.3,35.6-40.6,35 M20.1-1c-2.3,1.7-3.6,4-5.3,5.9c-0.7,0.7-1.7,1.3-2.3,2
							c-0.3,0.3-3,5.9-3.3,6.9l-0.7,0.3C4,13.9-0.7,13.9-5.3,13.9c-2,0-4.6-0.3-6.6-0.3c-0.3,0-0.3,0.3-0.3,0.7
							c4.3,1.6,12.5-1,15.5,3.3c0.3,0.7,0.3,1.6,1,1.6c0.7-0.3,1.7-0.7,2.6-0.7l0.3,0.7c-0.7,3-1.3,5.9-3.3,8.2
							c-3.3,4-10.6,11.9-14.5,13.9c-2,1-4.3,4.3-4.9,3c0-0.3-0.3-0.7-0.3-1c-2-0.3-1.6,3-4.3,4.6c-2.3,1.3-5.6,2.3-8.6,1.7
							c-3.6-0.7-6.9-2.6-10.2-4.3c-6.9-3.6-13.9-6.9-20.8-10.6c-3.3-1.7-6.6-3.3-9.9-4.9c-0.7-0.3-2-0.3-2.3-1.3
							c-0.3-1.3,0.7-3,1.6-3.6c2.3-1.3,5.6,0.3,7.6,1l0.3-0.3c-1.6-2-3.3-2-5.3-2.3c-1.7-0.3-3.3-1.3-5.3-1.6
							c-2.3-0.7-4.6-1.3-6.9-2c-1-0.3-2.6-0.7-2.3-2c-0.3-0.7-1.3-0.7-2-0.7c-7.6-1.3-15.2-3.3-22.8-4.9c-4.6-1-9.2-2-14.2-3.3
							c-15.5-4-31-7.9-46.5-12.5c-1.6-0.3-9.6-2.6-10.2-3.3c1-0.3,25.4,6.3,28.7,7.3c22.8,5.6,45.5,9.6,68.6,13.5
							c21.8,3.6,43.9,6.6,65.7,9.6c4,0.3,7.6,1,11.5,1.3c2.3,0.3,3-0.7,4.6-2.3c0-1-4.6-0.7-5.6-1v0.7c0.7,0.3,1.3,0.7,2,1.3
							l-0.3,0.7c-7.9-0.7-16.2-2.3-23.8-3.3c-12.2-2-24.4-3.6-36.3-5.9c-8.2-1.3-16.2-3.6-24.1-4.9V9.2c14.5,1.6,29,4.9,43.6,7.3
							v-0.3c-3.6-1-7.3-1.7-10.9-2.6c-16.5-4-33-7.3-49.5-11.2c3,0.3,5.9,0.7,8.9,1c1-0.7-0.3-2,0.3-3.3c1-2.3,3,0,3-1.3
							c0-0.3-0.7-2-1-2.3c-6.6-0.7-13.2-2.6-19.8-3.6v-0.7h4.3l0.3-0.3c0-1-1.6-0.7-2.3-0.7c-2.3-0.3-4.6-1-6.9-1.3
							c-5.3-1-4.6-4.9-8.2-5.9c-0.3,0-0.7-0.3-1-0.7c0-1.3,2,0.7,2.6-0.7c-0.3-1.6-1.3-3-0.7-4.6c0.3-0.7,0.7-1.3,1.3-1.3
							c3-1,4.3,4.6,6.3,5.9c1.7,1,3.6-1,5.6,0c1.3,0.7,2.3,1.3,3.6,2c1.3,0.7,3,3.6,4.6,3.3c1.3-0.3,2-2.3,4.3-2.6
							c3.6-0.3,7.6-0.3,11.2,0c5.9,1,16.2,4,20.8,7.9c-0.7,1.6-5.6,0.3-6.9,0c1,2.3-0.3,3.6,1,4l5.3,0.7c1.6,0,3,0.7,4.6,0.7
							c1.7,0,3.3,0,4.9,0.3c1,0,2.6,0.3,3,1.3c0,0.7-0.7,1.7,0,2.3c0.7,1,2.3,1,3.3,1.3c1.3,0.7,2.3,1.7,4,2c1.6-0.3,0.3-3,2-3.3
							c1.7-0.3,5.9,1.6,6.9,0.3c0-0.7-0.7-2,0.3-2.3c1-1,2.6-1,3.6-2.3c1.3-1.6,3.6-4.3,3-6.6c-0.7-2.3-5.9-4.9-8.2-3.6
							c-1.3,1-1.3,2.6-3,2.3c-2.3-0.7-4.6-1-6.6-1.3c-2-0.7-4.3-1-5.9-1.6c-0.3,0-0.7-0.7-0.3-1c1-1,9.2,0,10.6,0.3
							c0.7,0,1.3,0,2-0.7c1-1.3-1.3-1.6-0.7-2.6c1-1.3,3.3-2,4.9-1.6c3,0.7,5.9,2,8.6,3c1,0.3,1.6,1,2.6,1.3c2,0.7,4.3-0.3,5.9,2
							c1.3,2.3,3,4.6,3,7.3c0,2-1.3,3.6-2,5.3c-1.3,0.7-2.6,4-2.6,4.6c0,0.3,1.3,3.6,1.6,3.6l9.2,1c0.3,0,0.7-0.3,0.7-0.7
							c0.3-2-2.3-4-3.3-5.3c-0.3-0.3-1.3-1.6-1-2.3c0.3-1,2,0.7,2-0.7c0-1-1.7-2.3-1.7-3.6c0.3-1.3,0.3-3.3,1.7-4
							c2.3-1,2.3,0.7,3.3,0.7c0.3,0,1-0.3,1.6-0.3c1.3,0,2.6,0.3,4,0.7C-2.3-5.3,5.6-1.6,7.9-1.6c2.6-0.3,4-4.6,11.5-4.9l0.3,0.7
							c-2.6,2.6-4.6,1-7.3,6.3c-0.7,1.3-2,3-3,4.3c0,0.3,0,0.7,0.3,0.7c4.6-1.7,5.3-8.9,12.2-8.2l0.3,0.3C22.1-1.6,20.8-1.3,20.1-1
							 M-43.6-7.3c1,0,1,1,1.7,1.3c1.6-1,1.3-3,3-4c0.7,0,2,0.3,2.6,0.7c0.7,0.3,1.3,1,1.3,1.7c-0.3,1.3-1,2.3-1.3,3.6
							c-0.7,2-3,0.7-4.6,0.7c-1.6-0.3-3,0.3-4.3,0.7c-0.3,0-0.7-0.3-1-0.7c-0.3-0.7-0.3-1.3,0-2C-45.5-6.6-44.5-7.3-43.6-7.3
							 M126.4,34.6c-4.9,1-10.2,2.3-15.2,3.6c-0.3,0-1.3,0.3-1,0.7c1.7,0.3,10.2-2,12.2-2.6c1-0.3,1.3,0,2.3,0
							C125.4,36,126,35.6,126.4,34.6 M93.4,29.7c-0.3,0-1.7,0.3-1.3,1c0.3,0,0.7,0.3,1,0.3l28.7-4.6l1.3-0.7
							C122.7,25.4,102.9,28.4,93.4,29.7 M111.8,2c0,0.3,0.7,1,1,1c0.7-0.3,1.3-0.3,1.6-1L112.2-3c-1.7-2-0.3-4.9,0-7.3
							c0-0.3-0.3-0.3-0.7-0.7c-1.7,1.7-3,4-2.3,6.3C109.2-4.6,111.8,2,111.8,2z M166.3-8.6c2.3-0.7,4.9-0.7,7.3-1.3c0.3,0,1-0.7,1-1
							s-0.7-0.3-0.7-0.3L164-8.6l-1,0.7C164.3-8.6,164.6-8.2,166.3-8.6 M88.8,0c-0.7-0.3-1.7-0.3-2.3,0c-1,0.7-1,1.7-1.3,2.6
							c0,0.3,0,0.7,0.3,0.7c1,0,2.3-0.3,3-1C88.4,1.7,89.1,1,88.8,0 M253.7-4.3c-15.5,4.6-31,8.6-46.5,12.5
							c-4.6,1.3-9.2,2.3-14.2,3.3c-7.6,1.6-15.2,3.6-22.8,4.9c-0.7,0-1.6,0-2,0.7c0.3,1.3-1.3,1.6-2.3,2c-2.3,0.7-4.6,1.3-6.9,2
							c-1.6,0.3-3.3,1.3-5.3,1.6c-2.3,0.3-4,0.3-5.3,2.3l0.3,0.3c2-0.7,5.3-2.6,7.6-1c1,0.7,2,2.6,1.6,3.6c-0.3,1-1.6,1-2.3,1.3
							c-3.3,1.3-6.6,3.3-9.9,4.9c-6.9,3.6-13.9,6.9-20.8,10.6c-3.3,1.6-6.6,3.3-10.2,4.3c-3,0.7-5.9-0.3-8.6-1.7
							c-2.3-1.3-2.3-4.9-4.3-4.6c-0.3,0.3-0.3,0.7-0.3,1c-0.7,1.3-3-2-4.9-3c-4.3-2-11.5-10.2-14.5-13.9c-2-2.3-2.6-5.6-3.3-8.2
							l0.3-0.7c1-0.3,1.6,0,2.6,0.7c0.7-0.3,0.7-1,1-1.6c3-4,11.2-1.6,15.5-3.3c0-0.3,0-0.7-0.3-0.7c-2-0.3-4.6,0-6.6,0.3
							c-4.6,0-9.2,0.3-13.9,0.3l-0.7-0.3c-0.3-1-3-6.6-3.3-6.9c-0.7-0.7-1.7-1.3-2.3-2c-1.6-2-3-4.6-5.3-5.9C65.3-1.6,64-2,63.7-3
							L64-3.3c6.9-0.7,7.6,6.6,12.2,8.2c0.3,0,0.3-0.3,0.3-0.7c-1-1-2.3-2.6-3-4.3c-2.6-5.6-4.6-4-7.3-6.3l0.3-0.7
							c7.6,0.3,8.9,4.6,11.5,4.9c2,0.3,10.2-3.3,12.9-4.3c1.3-0.3,2.6-0.7,4-0.7c0.3,0,1,0.3,1.7,0.3c1,0,1.3-2,3.3-0.7
							c1.3,0.7,1.3,2.6,1.7,4c0.3,1.6-1.7,3-1.7,3.6c0.3,1.3,1.7-0.3,2,0.7c0.3,0.7-0.7,2-1,2.3c-1,1.3-4,3.6-3.3,5.3
							c0,0.3,0.7,0.7,0.7,0.7l9.2-1c0.3,0,1.7-3.3,1.7-3.6c0-0.7-1.3-4-1.7-4.6c-0.7-2-2-3.3-2-5.3c0-2.6,1.7-4.9,3-7.3
							c1.3-2.3,4-1.3,5.9-2c1-0.3,1.7-1,2.6-1.3c2.6-1.3,5.6-2.3,8.6-3c1.7-0.3,4,0,4.9,1.6c0.7,1-1.6,1.3-0.7,2.6
							c0.7,0.7,1.3,0.7,2,0.7c1.6-0.3,9.9-1.3,10.6-0.3c0.3,0.3,0,0.7-0.3,1c-1.6,0.7-4.3,1.3-5.9,1.6c-2.3,0.7-4.6,0.7-6.6,1.3
							c-2,0.7-1.6-1.3-3-2.3c-2-1.3-7.6,1.3-8.2,3.6c-0.7,2.3,1.3,4.9,3,6.6c1,1.3,2.6,1.3,3.6,2.3c0.7,0.7,0.3,1.7,0.3,2.3
							c1,1.3,5.3-0.7,6.9-0.3c2,0.7,0.3,3,2,3.3c1.3-0.3,2.6-1.3,4-2c1-0.3,2.6-0.7,3.3-1.3c0.7-0.7,0-1.7,0-2.3c0.3-1,2-1.3,3-1.3
							c1.6-0.3,3.3,0,4.9-0.3c1.6,0,3.3-0.7,4.6-0.7l5.3-0.7c1.3-0.7-0.3-1.7,1-4c-1.3,0.3-6.3,1.7-6.9,0c4.6-4.3,14.8-7.3,20.8-7.9
							c3.6-0.7,7.6-0.3,11.2,0c2.3,0.3,2.6,2.3,4.3,2.6c1.6,0.3,3.3-2.6,4.6-3.3c1-0.7,2.3-1.3,3.6-2c2-1.3,4,1,5.6,0
							c2-1,3.3-6.6,6.3-5.9c0.7,0.3,1,0.7,1.3,1.3c0.7,1.6-0.3,3-0.7,4.6c0.7,1.3,2.6-0.7,2.6,0.7c-0.3,0.3-0.7,0.7-1,0.7
							c-3.6,1-3,4.9-8.2,5.9c-2.3,0.3-4.6,1-6.9,1.3c-0.7,0-2.3-0.3-2.3,0.7l0.3,0.3h4.3v0.7c-6.6,1-13.2,2.6-19.8,3.6
							c-0.7,0.3-1,2-1,2.3c0.3,1.3,2-1,3,1.3c0.7,1.3-0.7,2.6,0.3,3.3c3-0.3,5.9-0.7,8.9-1c-16.5,4-33,7.3-49.5,11.2
							c-3.6,1-7.3,1.3-10.9,2.6v0.3c14.5-2,29-5.6,43.6-7.3v0.3c-8.2,1.6-16.2,3.6-24.1,4.9c-12.2,2.3-24.1,4-36.3,5.9
							c-7.9,1.3-15.8,2.6-23.8,3.3l-0.3-0.7c0.7-0.7,1.3-1,2-1.3v-0.7c-1,0-5.6-0.3-5.6,1c1.7,1.6,2,2.3,4.6,2.3
							c4-0.3,7.6-1,11.5-1.3c21.8-3,43.9-5.6,65.7-9.6c23.1-4,45.9-7.9,68.6-13.5c3.6-1,27.7-7.6,28.7-7.3
							C263.3-7.3,255-4.9,253.7-4.3 M216.8-14.5c-1,0-2-1.3-2.3-2c0-1.3,0.7-2,0.7-3c0.7-1,2.3-0.7,3.3-1c0.3,0,0.3,0.3,0.7,0.3
							C218.4-18.1,219.1-15.2,216.8-14.5 M209.8-12.5c1-2,4-1.6,3.6-0.7C213.5-12.9,210.2-12.2,209.8-12.5 M-123.7-12.5
							c-0.3,0.7-3.6,0-3.6-0.7C-127.7-14.2-124.7-14.8-123.7-12.5 M-106.9,29.7c3,0.7,6.3,1,9.6,2c1,1.7,3.3,1,4.9,1.7
							c1.3-0.7-3.6-4.3-4-4.9c-0.7-0.7-1.7-3.3-2-4.3c-0.7-2.3,0.7-4.9,2.6-5.9c1.6-1,3.3-0.3,4.9,0.3c1.3,0.7,5.9,1.6,6.3,3.3
							c-0.3,1-7.6-0.3-9.2,0.7c-0.7,0.3,0.3,1.6,0.7,2c1,2.3,8.9,8.2,9.6,10.2c1.3,4.6-6.9,5.6-9.9,6.3c-0.7,0-4.3,1-4,2
							c0,0,1.3,1.3,1.7,2v0.3c-1,0-9.6-2-10.9-2.3c-0.3,0-0.7-0.3-0.7-0.7c1-1.3-0.3-2.6,0-4c0.3-1,3.6-0.7,2-2.3l-2.6-0.3
							c-1.3,0.7,0.3,1.6-1,2c-1-0.3-3-0.7-3.3-2c-0.7-1-0.7-2.6,0-3.6C-111.2,30-109.2,29.4-106.9,29.7 M179.2,24.4
							c0.3-0.7,1.3-1.6,0.7-2c-1.3-1-8.9,0.3-9.2-0.7c0.3-1.6,4.9-2.6,6.3-3.3c1.6-0.7,3.3-1,4.9-0.3c2,1,3.3,3.6,3,5.6
							c0,1-1.3,3.3-2,4.3c-0.7,0.7-5.3,4.6-4,4.9c1.6-0.7,4,0,4.9-1.6c3-1,6.3-1.3,9.6-2c2-0.3,4.3,0.3,5.6,2c0.7,1,0.7,2.6,0,3.6
							c-0.7,1.3-2.3,1.6-3.3,2c-1.3-0.3,0-1.6-1-2l-2.6,0.3c-1.6,1.6,2,1.6,2,2.3c0.3,1.3-1,2.6,0,4c0,0.3-0.3,0.7-0.7,0.7
							c-1.3,0.7-9.6,2.6-10.9,2.3l-0.3-0.3c0.3-0.3,1.6-1.7,1.6-2c0.7-1-3.3-1.6-4-2c-3-0.7-10.9-1.7-9.9-6.3
							C170.2,32.7,178.2,27.1,179.2,24.4 M131-3.3c-1.3-0.3-2.6-1-4.3-0.7c-1.3,0-4,1.3-4.3-0.7c-0.3-1.3-1-2.3-1.3-3.6
							c0-0.7,0.7-1.3,1.3-1.7c1-0.3,2-0.7,3-0.7c1.7,1,1.3,3,3,4c0.7-0.3,1-1.3,1.6-1.3s1.6,0.7,2.3,1.6c0.3,0.7,0.3,1.3,0,2
							C131.6-3.6,131.6-3.6,131-3.3 M-130.7-14.5c-2.6-0.7-1.6-3.6-2.3-5.6c0,0,0.3-0.3,0.7-0.3c1,0.3,2.6,0,3.3,1
							c0.3,1,0.7,1.6,0.7,3C-128.7-15.8-129.7-14.5-130.7-14.5"/>
					</g>
					<g id="g3410" transform="translate(302.0255,305.6548)">
						<path id="path3412" class="st2" d="M0,0c0.7,0.7,1.3,1,1.7,1.3c-0.3,0.3,0.3,0,0,0L2,1.7c-1,2-2.3,4.3-3.6,5.9
							C-0.7,5.3-0.3,2.6,0,0"/>
					</g>
					<g id="g3414" transform="translate(202.716,227.7908)">
						<path id="path3416" class="st1" d="M0,0l-9.9-6.9l-2,3L-2,3L0,0z M3.3,2.3L-1,8.6l-30-21.1l2.3-3.3l13.2,9.2l2-2.6l-10.9-7.6
							c-1-0.7-1.3-1.6-2-2.3l2.6-3.6l0.3,0.3c0.3,1,0.7,1.6,1.6,2.3l9.9,6.9c1.3,1,2,2,2,3c0.3,0,0.7-0.3,1.3-0.3s1.3,0.3,2,0.7
							L3-3.3c1,0.7,1.3,1.6,1.7,2.6C4.3,0.3,4,1.7,3.3,2.3"/>
					</g>
					<g id="g3418" transform="translate(205.3555,207.335)">
						<path id="path3420" class="st1" d="M0,0l-2.3,2.3l7.9,9.2l2.6-2.3L0,0z M-2.6-3.3l-7.9-9.2l-2.6,2.3L-4.9-1
							C-4.9-1-2.6-3.3-2.6-3.3z M12.2,9.6c0,1-0.7,2-1.3,2.6l-5.9,4.9l-24.1-28l5.9-4.9c0.7-0.7,1.6-1,2.6-1c1.3,0,2.3,0.7,3,1.3
							l7.3,8.2c1,1.3,1.7,2.3,1,3.6h0.7c1,0,1.6,0.3,2.3,1.3l7.6,8.6C12.2,7.6,12.5,8.6,12.2,9.6"/>
					</g>
				</g>
			</g>
		</g>
	</g>
</g>
</svg>
