<svg id="Layer_1" data-name="Layer 1" xmlns="http://www.w3.org/2000/svg" viewBox="0 0 219.64 287.47"><defs><style>.cls-1{fill:#fd0;}.cls-2{fill:#ba3733;}.cls-3{fill:#fff;}.cls-4{fill:#cd1719;}.cls-5{fill:#026139;}.cls-6{fill:#221f1f;}.cls-7{fill:#46714d;}.cls-8{fill:#ffd42e;}</style></defs><title>아우크스부르크</title><path id="path2522" class="cls-1" d="M40.18,6.26V183.85a109.82,109.82,0,1,0,219.64,0V6.26H40.18" transform="translate(-40.18 -6.26)"/><path id="path2524" class="cls-2" d="M257.39,8.62V183.85a107.4,107.4,0,0,1-214.79,0V8.62H257.39" transform="translate(-40.18 -6.26)"/><path id="path2526" class="cls-1" d="M45.94,183.85a104.06,104.06,0,1,0,208.12,0V91.53H45.94v92.32" transform="translate(-40.18 -6.26)"/><path id="path2528" class="cls-1" d="M254.06,11.88H45.94V88.09H254.06V11.88" transform="translate(-40.18 -6.26)"/><path id="path2530" class="cls-3" d="M251.64,14.41H48.36V85.73H251.64V14.41" transform="translate(-40.18 -6.26)"/><path id="path2532" class="cls-3" d="M150,93.88V285.59A101.79,101.79,0,0,0,251.64,183.85v-90H150" transform="translate(-40.18 -6.26)"/><path id="path2534" class="cls-4" d="M70,26.54h42.66v9.59H82.29v7.43H111.2V53H82.29V66.91H70V26.54" transform="translate(-40.18 -6.26)"/><path id="path2536" class="cls-4" d="M154.14,51.34h12.31c.09,2,.12,3.26.12,3.8a15.4,15.4,0,0,1-1.37,7.24c-1,2-3,3.44-6,4.17s-8.13.9-15.46.9c-7.7,0-13.16,0-16.44-.36a21.42,21.42,0,0,1-7.37-1.63,8.18,8.18,0,0,1-3.33-3.26A13.74,13.74,0,0,1,115.18,57c-.18-1.81-.27-5.25-.27-10s.09-8.14.27-10.13a16.16,16.16,0,0,1,1-4.89q1.68-3.81,6.84-4.89c3.42-.72,10.36-1.27,20.77-1.27,5.19,0,9,.18,11.35.37a19.14,19.14,0,0,1,5.65,1.44,7.88,7.88,0,0,1,3.87,3.81,19.65,19.65,0,0,1,1.12,7.6c0,.18,0,.72,0,2H153.48a14.11,14.11,0,0,0-.25-2.71,1.43,1.43,0,0,0-.67-1.09c-.47-.54-1.66-.73-3.56-.91s-4.82-.36-8.71-.36a71.13,71.13,0,0,0-8,.36,5.93,5.93,0,0,0-3.13.91,5,5,0,0,0-1.54,2.9,41.81,41.81,0,0,0-.41,6.87,36.37,36.37,0,0,0,.38,6.34A4.18,4.18,0,0,0,129.08,56a6.6,6.6,0,0,0,3.3,1.09c1.5.18,4.18.18,8,.18,4.71,0,7.85,0,9.43-.18A5.44,5.44,0,0,0,153,56c.74-.54,1.12-2.17,1.16-4.7" transform="translate(-40.18 -6.26)"/><path id="path2538" class="cls-4" d="M48.36,93.88v90A101.8,101.8,0,0,0,150,285.59V93.88H48.36" transform="translate(-40.18 -6.26)"/><path id="path2540" class="cls-4" d="M188.48,51.16,195.9,36h1.7l7.48,15.21ZM207,26.54H187L164.65,70H132.9v9.59h41.8L184.17,60h25.25l9.52,19.55h16.22l-28.2-53" transform="translate(-40.18 -6.26)"/><path id="path2542" class="cls-5" d="M101.44,79.58H132.9V70H101.44Z" transform="translate(-40.18 -6.26)"/><path id="path2544" class="cls-4" d="M70,79.58h31.46V70H70Z" transform="translate(-40.18 -6.26)"/><path id="path2546" class="cls-3" d="M133.91,71.07v7.42h29.78V71.07H133.91" transform="translate(-40.18 -6.26)"/><path id="path2548" class="cls-3" d="M138.91,263.68c-1.86,0-3.29-1.26-3.29-4.88,0-2.54,1-4.35,3-4.35,2.66,0,3.79,3.08,3.79,5.62A11.8,11.8,0,0,1,142,263,5.94,5.94,0,0,1,138.91,263.68Zm.07-11.4a6.58,6.58,0,0,0-6.59,6.88c0,4,2.4,6.7,6.07,6.7a7,7,0,0,0,2.8-.55,12.55,12.55,0,0,1-7.4,6.34l.85,2a16.79,16.79,0,0,0,7.22-4.16,13.52,13.52,0,0,0,3.68-9.05c0-5.43-3.28-8.15-6.63-8.15" transform="translate(-40.18 -6.26)"/><path id="path2550" class="cls-3" d="M125,255l2.55-.91v-1.26h-8.31v1.26l2.54.91v9.41l-2.54.72v1.27h8.31v-1.27l-2.55-.72V255" transform="translate(-40.18 -6.26)"/><path id="path2552" class="cls-4" d="M162,264.41a4.91,4.91,0,1,1,4.47-4.89A4.58,4.58,0,0,1,162,264.41Zm0-12.13a7.25,7.25,0,1,0,7.58,7.24,7.33,7.33,0,0,0-7.58-7.24" transform="translate(-40.18 -6.26)"/><path id="path2554" class="cls-4" d="M170.86,252.83v2.53h8.91c-2.14,3.26-6,11-7.17,17.19h2.64c1.07-5.24,5-13,8-17.74v-2H170.86" transform="translate(-40.18 -6.26)"/><path id="path2556" class="cls-6" d="M189,200.14l-12.08-10.86a166.81,166.81,0,0,1-16.78,2l-.13-8.5c10.11-.91,14.94-3.62,19.36-7.79,5.3-5.07,7.78-11.58,7.78-21,0-15.93-9.38-30.95-17.4-38.92a38.35,38.35,0,0,0-19.49-10.68h-.46a38.43,38.43,0,0,0-19.49,10.68c-8,8-17.38,23-17.38,38.92,0,9.42,2.46,15.93,7.76,21,4.42,4.17,9.25,6.88,19.37,7.79l-.14,8.5a167.85,167.85,0,0,1-16.78-2L111,200.14l4.93,5.44a8.87,8.87,0,0,0-.73,3.62,6.83,6.83,0,0,0,6.81,6.87,6.11,6.11,0,0,0,4.58-2,5.19,5.19,0,0,0,.89-1.81c3.11,6.52,5,16.84,5.79,32l0,1.08h33.29l.08-1.08c.79-15.21,2.68-25.53,5.79-32a4.84,4.84,0,0,0,.87,1.81,6.12,6.12,0,0,0,4.6,2,6.84,6.84,0,0,0,6.81-6.87,9.21,9.21,0,0,0-.73-3.62l4.91-5.44" transform="translate(-40.18 -6.26)"/><path id="path2558" class="cls-5" d="M152,180.59l7.3-4.34L150,170.82l-9.29,5.43,7.3,4.34h4" transform="translate(-40.18 -6.26)"/><path id="path2560" class="cls-5" d="M163.51,122.3l9.27,5.61,2.66-1.63a54,54,0,0,0-5.77-7.6l-6.16,3.62" transform="translate(-40.18 -6.26)"/><path id="path2562" class="cls-5" d="M127.22,170.82l-4.46,2.71a25.12,25.12,0,0,0,9.53,5.25l4.21-2.53-9.28-5.43" transform="translate(-40.18 -6.26)"/><path id="path2564" class="cls-7" d="M135.29,179.51a50.45,50.45,0,0,0,8.26.9l-5-2.89-3.31,2" transform="translate(-40.18 -6.26)"/><path id="path2566" class="cls-7" d="M156.45,180.41a50.2,50.2,0,0,0,8.26-.9l-3.31-2-5,2.89" transform="translate(-40.18 -6.26)"/><path id="path2568" class="cls-5" d="M178.81,171.9a20.06,20.06,0,0,0,4.22-7.24l-8.13,4.89,3.91,2.35" transform="translate(-40.18 -6.26)"/><path id="path2570" class="cls-5" d="M184.1,148a49.87,49.87,0,0,0-2.48-9.42l-6.72,4,9.2,5.43" transform="translate(-40.18 -6.26)"/><path id="path2572" class="cls-5" d="M184.26,150.54h-.09L174.9,156l9,5.43a37.22,37.22,0,0,0,.66-7.42c0-1.08-.08-2.35-.19-3.44h-.13" transform="translate(-40.18 -6.26)"/><path id="path2574" class="cls-5" d="M163.51,176.25l4.2,2.53a25,25,0,0,0,9.53-5.25l-4.46-2.71-9.27,5.43" transform="translate(-40.18 -6.26)"/><path id="path2576" class="cls-5" d="M117,164.66a20,20,0,0,0,4.2,7.24l3.91-2.35L117,164.66" transform="translate(-40.18 -6.26)"/><path id="path2578" class="cls-5" d="M157.9,109.63a37.42,37.42,0,0,0-7.89-2.72,37.15,37.15,0,0,0-7.91,2.72l7.91,4.71,7.89-4.71" transform="translate(-40.18 -6.26)"/><path id="path2580" class="cls-5" d="M147.89,115.6l-8-4.7a40.59,40.59,0,0,0-7.8,6c-.07,0-.15.18-.2.18l6.73,4,9.29-5.43" transform="translate(-40.18 -6.26)"/><path id="path2582" class="cls-5" d="M161.4,121l6.75-4c-.07,0-.15-.18-.22-.18a40,40,0,0,0-7.8-6l-8,4.7L161.4,121" transform="translate(-40.18 -6.26)"/><path id="path2584" class="cls-5" d="M136.5,122.3l-6.15-3.62a52.51,52.51,0,0,0-5.78,7.6l2.65,1.63,9.28-5.61" transform="translate(-40.18 -6.26)"/><path id="path2586" class="cls-5" d="M115.83,150.54h-.22c-.11,1.09-.18,2.36-.18,3.44a38.81,38.81,0,0,0,.65,7.42l9-5.43-9.27-5.43" transform="translate(-40.18 -6.26)"/><path id="path2588" class="cls-5" d="M118.38,138.59a48.36,48.36,0,0,0-2.46,9.42l9.18-5.43-6.72-4" transform="translate(-40.18 -6.26)"/><path id="path2590" class="cls-7" d="M123.43,128.09c-.58.91-1.15,2-1.68,2.9l3.35-2-1.67-.91" transform="translate(-40.18 -6.26)"/><path id="path2592" class="cls-5" d="M127.22,141.31l9.28-5.43-9.28-5.61L120,134.61a15.06,15.06,0,0,0-.85,2l8,4.71" transform="translate(-40.18 -6.26)"/><path id="path2594" class="cls-5" d="M140.72,149.28l9.29,5.61,9.27-5.61L150,143.84l-9.29,5.44" transform="translate(-40.18 -6.26)"/><path id="path2596" class="cls-5" d="M127.22,157.24,118,162.85l9.27,5.43,9.28-5.43-9.28-5.61" transform="translate(-40.18 -6.26)"/><path id="path2598" class="cls-5" d="M129.34,169.55,138.6,175l9.29-5.43-9.29-5.43-9.26,5.43" transform="translate(-40.18 -6.26)"/><path id="path2600" class="cls-5" d="M136.5,149.28l-9.28-5.44L118,149.28l9.27,5.61,9.28-5.61" transform="translate(-40.18 -6.26)"/><path id="path2602" class="cls-5" d="M147.89,129l-9.29-5.43L129.34,129l9.26,5.61,9.29-5.61" transform="translate(-40.18 -6.26)"/><path id="path2604" class="cls-5" d="M147.89,142.58l-9.29-5.43-9.26,5.43L138.6,148l9.29-5.43" transform="translate(-40.18 -6.26)"/><path id="path2606" class="cls-5" d="M150,157.24l-9.29,5.61,9.29,5.43,9.27-5.43L150,157.24" transform="translate(-40.18 -6.26)"/><path id="path2608" class="cls-5" d="M152.11,169.55,161.4,175l9.26-5.43-9.26-5.43-9.29,5.43" transform="translate(-40.18 -6.26)"/><path id="path2610" class="cls-5" d="M152.11,142.58,161.4,148l9.26-5.43-9.26-5.43-9.29,5.43" transform="translate(-40.18 -6.26)"/><path id="path2612" class="cls-5" d="M172.78,154.89l9.27-5.61-9.27-5.44-9.27,5.44,9.27,5.61" transform="translate(-40.18 -6.26)"/><path id="path2614" class="cls-5" d="M163.51,162.85l9.27,5.43,9.27-5.43-9.27-5.61-9.27,5.61" transform="translate(-40.18 -6.26)"/><path id="path2616" class="cls-5" d="M152.11,129l9.29,5.61,9.26-5.61-9.26-5.43L152.11,129" transform="translate(-40.18 -6.26)"/><path id="path2618" class="cls-5" d="M159.28,122.3,150,116.87l-9.29,5.43,9.29,5.61,9.27-5.61" transform="translate(-40.18 -6.26)"/><path id="path2620" class="cls-5" d="M178.27,131c-.55-.9-1.11-2-1.7-2.9l-1.67.91,3.37,2" transform="translate(-40.18 -6.26)"/><path id="path2622" class="cls-5" d="M172.78,130.27l-9.27,5.61,9.27,5.43,8-4.71a15.12,15.12,0,0,0-.83-2l-7.21-4.34" transform="translate(-40.18 -6.26)"/><path id="path2624" class="cls-5" d="M129.34,156l9.26,5.61,9.29-5.61-9.29-5.43L129.34,156" transform="translate(-40.18 -6.26)"/><path id="path2626" class="cls-5" d="M150,130.27l-9.29,5.61,9.29,5.43,9.27-5.43L150,130.27" transform="translate(-40.18 -6.26)"/><path id="path2628" class="cls-5" d="M170.66,156l-9.26-5.43L152.11,156l9.29,5.61,9.26-5.61" transform="translate(-40.18 -6.26)"/><path id="path2630" class="cls-1" d="M129.28,199.06h10.5l.09-5.61a120.7,120.7,0,0,1-16.09-2c-4,3.62-7.42,6.87-9.69,8.87l3,3.25c2.24-2.89,6.46-4.52,12.18-4.52" transform="translate(-40.18 -6.26)"/><path id="path2632" class="cls-1" d="M176.22,191.46a159.2,159.2,0,0,1-16.07,2l.09,5.61h10.48c5.72,0,9.94,1.63,12.2,4.52l3-3.25c-2.27-2-5.74-5.25-9.69-8.87" transform="translate(-40.18 -6.26)"/><path id="path2634" class="cls-1" d="M150,199.24h-8.08l.26-16.29c2.33.18,4.92.18,7.82.18s5.48,0,7.82-.18l.25,16.29H150" transform="translate(-40.18 -6.26)"/><path id="path2636" class="cls-1" d="M126.64,201.23c-5.92.73-9.25,3.62-9.25,8a4.72,4.72,0,0,0,4.65,4.7,4.05,4.05,0,0,0,2.92-1.08c.7-.91.84-2.36.45-4.17l1.93-.9c4,5.61,6.36,14.66,7.59,29.14l6.35-15.57c-4.4-9.59-9.34-17.55-14.64-20.09" transform="translate(-40.18 -6.26)"/><path id="path2638" class="cls-8" d="M142.41,218.61l7.13-17.2-18.9-.18c3.84,3.08,7.66,8.69,11.77,17.38" transform="translate(-40.18 -6.26)"/><path id="path2640" class="cls-1" d="M169.36,201.23l-18.88.18,7.13,17.2c4.09-8.69,7.91-14.3,11.75-17.38" transform="translate(-40.18 -6.26)"/><path id="path2642" class="cls-8" d="M143.62,221.32c2,4.71,4.16,10,6.39,16.12,2.23-6.16,4.32-11.41,6.37-16.12-3-7.24-5.68-13.75-6.37-15.38-.71,1.63-3.37,8.14-6.39,15.38" transform="translate(-40.18 -6.26)"/><path id="path2644" class="cls-8" d="M142.5,224c-2.68,6.52-5.45,13.22-7.21,17.56,0,.54.06,1.09.09,1.63h14.37l-.75-2.17c-2-5.61-4.17-11.59-6.5-17" transform="translate(-40.18 -6.26)"/><path id="path2646" class="cls-1" d="M173.36,201.23c-5.28,2.54-10.24,10.5-14.64,20.09l6.35,15.57c1.23-14.48,3.64-23.53,7.59-29.14l1.93.9c-.39,1.81-.23,3.26.47,4.17A4,4,0,0,0,178,213.9a4.72,4.72,0,0,0,4.65-4.7c0-4.35-3.35-7.24-9.27-8" transform="translate(-40.18 -6.26)"/><path id="path2648" class="cls-1" d="M151,241.06l-.78,2.17h14.38c0-.54.07-1.09.11-1.63-1.78-4.34-4.55-11-7.21-17.56-2.35,5.43-4.52,11.41-6.5,17" transform="translate(-40.18 -6.26)"/></svg>