<svg width="1136" height="758" xmlns="http://www.w3.org/2000/svg" xmlns:xlink="http://www.w3.org/1999/xlink" overflow="hidden"><defs><clipPath id="clip0"><rect x="-1" y="-1" width="1136" height="758"></rect></clipPath></defs><g clip-path="url(#clip0)" transform="translate(1 1)"><path d="M0 0 1134 0 1134 756 0 756Z" fill="#FF0000" fill-rule="evenodd"></path><path d="M0 0 454 0 454 756 0 756Z" fill="#006600" fill-rule="evenodd"></path><path d="M601.852 495.5C544.819 493.783 283.294 330.57 281.5 304.579L295.941 280.5C321.883 318.186 589.24 476.914 615.5 471.289L601.851 495.492" stroke="#000000" stroke-width="1.08199" stroke-linecap="round" stroke-linejoin="round" stroke-miterlimit="10" fill="#FFFF00" fill-rule="evenodd"></path><path d="M292.451 276.999C287.32 290.819 360.896 336.34 449.42 390.22 537.94 444.096 614.268 477.392 619.926 472.617 620.271 472 622.709 467.802 622.486 467.836 621.425 469.435 618.844 469.94 614.816 468.778 590.901 461.875 528.525 433.223 451.276 386.344 374.029 339.461 306.821 296.258 296.375 277.901 295.649 276.63 295.131 274.309 295.236 272.504L294.982 272.5 292.758 276.39 292.453 277 292.451 277ZM603.65 496.87C602.68 498.631 600.872 498.69 597.437 498.312 576.041 495.943 511.119 464.348 434.298 418.328 344.91 364.781 271.087 315.99 279.096 303.238L281.275 299.383 281.704 299.517C274.502 321.127 427.397 408.615 436.399 414.193 524.866 469.042 599.449 501.071 606.049 492.747L603.648 496.88 603.648 496.876Z" stroke="#000000" stroke-width="1.08199" stroke-linecap="round" stroke-linejoin="round" stroke-miterlimit="10" fill="#FFFF00" fill-rule="evenodd"></path><path d="M454.525 320.499C511.579 320.047 581.983 312.695 622.5 296.531L613.771 282.333C589.822 295.601 519.031 304.326 454.043 305.631 377.18 304.923 322.925 297.758 295.74 279.5L287.5 294.619C337.472 315.786 388.68 320.281 454.526 320.5" stroke="#000000" stroke-width="1.08199" stroke-linecap="round" stroke-linejoin="round" stroke-miterlimit="10" fill="#FFFF00" fill-rule="evenodd"></path><path d="M624.494 296.688C623.099 298.939 596.651 308.137 557.689 314.924 531.272 318.986 496.813 322.458 453.81 322.5 412.954 322.538 379.579 319.606 354.312 316.152 313.412 309.686 292.304 300.688 284.5 297.508 285.246 296.012 285.726 294.962 286.445 293.564 308.91 302.584 330.117 308.023 354.961 311.877 380.063 315.306 413.035 318.28 453.689 318.242 496.492 318.198 530.571 314.462 556.836 310.522 596.789 304.024 618.613 295.661 621.679 291.777L624.5 296.688 624.496 296.688ZM616.826 282.171C612.496 285.678 590.919 293.395 552.956 299.509 527.621 303.17 495.407 306.447 454.249 306.488 415.148 306.526 383.203 303.869 358.904 300.3 320.35 295.222 299.831 286.063 292.433 283.392 293.17 282.109 293.919 280.836 294.689 279.558 300.445 282.48 320.247 290.586 359.327 296.169 383.35 299.604 415.345 302.164 454.251 302.124 495.215 302.082 527.062 298.741 552.237 295.099 590.395 289.805 610.928 279.964 614.046 277.5L616.828 282.168 616.828 282.172Z" stroke="#000000" stroke-width="1.08199" stroke-linecap="round" stroke-linejoin="round" stroke-miterlimit="10" fill="#FFFF00" fill-rule="evenodd"></path><path d="M266.65 389.216C301.807 408.248 379.894 417.839 453.788 418.499 521.07 418.607 608.722 408.032 641.5 390.549L640.598 371.5C630.344 387.629 536.412 403.101 453.059 402.468 369.705 401.835 292.302 388.877 266.5 372.103L266.65 389.211" stroke="#000000" stroke-width="1.08199" stroke-linecap="round" stroke-linejoin="round" stroke-miterlimit="10" fill="#FFFF00" fill-rule="evenodd"></path><path d="M643.479 386.055 643.481 390.56C638.554 396.44 607.66 405.327 568.918 411.585 539.433 416.097 500.992 419.5 453.092 419.5 407.585 419.5 371.295 416.261 343.152 411.949 298.667 405.484 270.212 394.162 264.5 390.783L264.525 385.527C281.683 396.912 328.167 405.241 343.777 407.79 371.736 412.074 407.81 415.288 453.09 415.288 500.766 415.288 538.991 411.908 568.291 407.426 596.086 403.418 635.683 392.997 643.478 386.057L643.479 386.057ZM643.498 370.03 643.5 374.535C638.573 380.411 607.679 389.298 568.937 395.556 539.452 400.068 501.011 403.471 453.111 403.471 407.604 403.471 371.314 400.236 343.171 395.921 298.685 389.458 270.231 378.136 264.519 374.756L264.544 369.5C281.702 380.884 328.186 389.214 343.796 391.759 371.755 396.047 407.829 399.262 453.109 399.262 500.784 399.262 539.01 395.88 568.31 391.395 596.105 387.387 635.701 376.966 643.497 370.026L643.498 370.03Z" stroke="#000000" stroke-width="1.08199" stroke-linecap="round" stroke-linejoin="round" stroke-miterlimit="10" fill="#FFFF00" fill-rule="evenodd"></path><path d="M453.534 492.152C372.547 491.675 303.154 470.33 288.5 466.802L299.185 483.337C325.069 494.1 392.768 510.141 454.311 508.364 515.856 506.59 569.641 501.877 607.544 483.637L618.5 466.5C592.67 478.526 504.764 492.029 453.533 492.152" stroke="#000000" stroke-width="1.08199" stroke-linecap="round" stroke-linejoin="round" stroke-miterlimit="10" fill="#FFFF00" fill-rule="evenodd"></path><path d="M611.88 480.007C610.27 482.441 608.629 484.845 606.965 487.181 589.093 493.418 560.932 499.967 549.048 501.877 524.774 506.827 487.217 510.483 453.885 510.5 382.164 509.461 323.456 495.565 295.837 483.711L293.608 479.919 293.972 479.349 297.752 480.8C346.868 498.192 402.033 505.131 454.29 506.377 487.487 506.492 520.72 502.611 547.594 497.854 588.804 489.682 605.467 483.522 610.58 480.729L611.88 480.007 611.878 480.007ZM621.376 464.503C621.418 464.551 621.46 464.597 621.5 464.649 620.297 466.659 619.056 468.705 617.786 470.761 608.254 474.133 582.385 481.624 544.609 486.852 519.719 490.208 504.249 493.458 454.736 494.41 361.956 492.074 301.886 474.118 287.615 469.689L285.5 465.674C339.269 479.567 394.193 489.265 454.739 490.256 500.038 489.301 519.31 486 543.993 482.669 588.042 475.889 610.236 468.712 616.897 466.64 616.814 466.521 616.715 466.395 616.605 466.266L621.381 464.5 621.377 464.504Z" stroke="#000000" stroke-width="1.03864" stroke-linecap="round" stroke-linejoin="round" stroke-miterlimit="10" fill="#FFFF00" fill-rule="evenodd"></path><path d="M622.374 374.538C622.636 427.703 595.396 475.411 573.454 496.458 542.413 526.234 501.256 545.388 453.192 546.271 399.521 547.255 348.914 512.309 335.34 496.957 308.802 466.942 287.195 428.827 286.502 377.459 289.79 319.435 312.597 279.016 345.656 251.299 378.716 223.582 422.736 210.084 459.396 211.049 501.693 212.164 551.102 232.888 585.243 274.03 607.61 300.986 617.296 330.239 622.374 374.538ZM453.648 192.5C556.725 192.5 641.5 276.277 641.5 378.999 641.5 481.72 556.725 565.5 453.648 565.5 350.571 565.5 266.5 481.722 266.5 378.999 266.5 276.277 350.571 192.5 453.648 192.5" stroke="#000000" stroke-width="1.08199" stroke-linecap="round" stroke-linejoin="round" stroke-miterlimit="10" fill="#FFFF00" fill-rule="evenodd"></path><path d="M453.5 191.5C556.497 191.5 640.5 275.506 640.5 378.502 640.5 481.496 556.495 565.5 453.5 565.5 350.503 565.5 266.5 481.498 266.5 378.502 266.5 275.506 350.505 191.5 453.5 191.5ZM270.615 378.503C270.615 479.084 353.219 561.388 453.5 561.388 553.783 561.388 636.387 479.084 636.387 378.503 636.387 277.918 553.781 195.614 453.5 195.614 353.219 195.614 270.615 277.922 270.615 378.503Z" stroke="#000000" stroke-width="1.08199" stroke-linecap="round" stroke-linejoin="round" stroke-miterlimit="10" fill="#FFFF00" fill-rule="evenodd"></path><path d="M454 207.5C548.041 207.5 625.5 284.458 625.5 378.501 625.5 472.546 548.039 549.5 454 549.5 359.961 549.5 282.5 472.546 282.5 378.501 282.5 284.458 359.963 207.5 454 207.5ZM286.619 378.5C286.619 470.284 362.219 545.391 454 545.391 545.781 545.391 621.381 470.284 621.381 378.5 621.381 286.714 545.783 211.607 454 211.607 362.219 211.607 286.619 286.714 286.619 378.5Z" stroke="#000000" stroke-width="1.08199" stroke-linecap="round" stroke-linejoin="round" stroke-miterlimit="10" fill="#FFFF00" fill-rule="evenodd"></path><path d="M461.427 190.5 445.5 190.5 445.519 566.5 461.5 566.5Z" stroke="#000000" stroke-width="1.08199" stroke-linecap="round" stroke-linejoin="round" stroke-miterlimit="10" fill="#FFFF00" fill-rule="evenodd"></path><path d="M460.39 188.5 464.465 188.5 464.5 568.497 460.422 568.497 460.392 188.5ZM444.5 188.503 448.607 188.503 448.613 568.5 444.503 568.5 444.503 188.503Z" stroke="#000000" stroke-width="1.08199" stroke-linecap="round" stroke-linejoin="round" stroke-miterlimit="10" fill="#FFFF00" fill-rule="evenodd"></path><path d="M641.5 385.5 641.5 371.573 630.182 361.008 565.941 343.967 473.358 334.5 361.88 340.18 282.523 359.115 266.5 371.005 266.5 384.935 307.085 366.689 403.448 351.541 496.031 351.541 564.051 359.115 611.288 370.475Z" stroke="#000000" stroke-width="1.08199" stroke-linecap="round" stroke-linejoin="round" stroke-miterlimit="10" fill="#FFFF00" fill-rule="evenodd"></path><path d="M454.1 349.711C498.308 349.629 541.2 353.94 575.221 360.629 610.328 367.715 635.034 376.578 643.481 386.533L643.472 391.463C633.285 379.074 600.039 369.992 574.431 364.8 540.669 358.169 498.064 353.888 454.1 353.97 407.709 354.058 364.511 358.494 331.242 365.048 304.547 370.396 268.945 381.02 264.5 391.5L264.5 386.367C266.941 379.113 293.451 368.273 330.641 360.756 364.159 354.157 407.437 349.797 454.1 349.711ZM454.119 333.501C498.327 333.42 541.219 337.733 575.24 344.419 610.347 351.508 635.053 360.368 643.5 370.323L643.491 375.252C633.303 362.867 600.058 353.784 574.45 348.594 540.688 341.959 498.083 337.678 454.119 337.764 407.728 337.848 364.739 342.287 331.467 348.838 305.706 353.769 268.65 364.814 264.517 375.294L264.517 370.158C266.958 362.983 294.005 351.754 330.66 344.547 364.178 337.948 407.456 333.591 454.119 333.502Z" stroke="#000000" stroke-width="1.08199" stroke-linecap="round" stroke-linejoin="round" stroke-miterlimit="10" fill="#FFFF00" fill-rule="evenodd"></path><path d="M453.115 251.509C522.786 251.155 583.556 261.4 611.359 275.86L621.5 293.673C597.335 280.45 531.774 266.701 453.216 268.757 389.208 269.157 320.815 275.912 286.5 294.5L298.607 273.942C326.77 259.115 393.185 251.591 453.117 251.513" stroke="#000000" stroke-width="1.08199" stroke-linecap="round" stroke-linejoin="round" stroke-miterlimit="10" fill="#FFFF00" fill-rule="evenodd"></path><path d="M454.271 266.368C494.035 266.264 532.458 268.481 563.015 273.93 591.472 279.164 618.611 287.021 622.492 291.246L625.5 296.5C616.063 290.41 592.578 283.628 562.423 277.977 532.14 272.352 493.744 270.488 454.201 270.59 409.319 270.439 374.45 272.78 344.525 277.937 312.875 283.79 290.917 292.151 285.5 296.124L288.448 290.57C298.974 285.263 315.674 278.866 343.738 273.872 374.685 268.285 409.925 266.609 454.274 266.368L454.272 266.368ZM454.254 250.503C492.308 250.404 529.881 252.5 559.169 257.704 582.268 262.148 605.112 269.086 613.476 275.261L617.876 282.171C610.396 273.953 582.239 266.166 557.382 261.804 528.319 256.849 492.307 254.889 454.253 254.575 414.317 254.686 377.41 257.103 348.771 262.257 321.449 267.396 303.817 273.48 296.357 278.231L300.227 272.459C310.522 267.102 327.153 262.183 348.1 258.161 376.951 252.969 414.085 250.614 454.255 250.503Z" stroke="#000000" stroke-width="1.08199" stroke-linecap="round" stroke-linejoin="round" stroke-miterlimit="10" fill="#FFFF00" fill-rule="evenodd"></path><path d="M546.521 456.159C512.195 449.79 477.807 448.865 453.787 449.146 338.086 450.494 300.709 472.759 296.147 479.5L287.5 465.49C316.957 444.269 379.963 432.368 454.414 433.585 493.074 434.214 526.435 436.766 554.5 442.169L546.519 456.162" stroke="#000000" stroke-width="1.08199" stroke-linecap="round" stroke-linejoin="round" stroke-miterlimit="10" fill="#FFFF00" fill-rule="evenodd"></path><path d="M453.393 447.634C485.701 448.112 517.413 449.437 548.023 455.101L545.806 458.984C517.377 453.776 487.07 451.783 453.502 451.946 410.638 451.613 367.285 455.586 329.541 466.335 317.631 469.624 297.915 477.222 295.905 483.5L293.7 479.892C294.335 476.181 306.251 468.479 328.527 462.268 371.76 449.983 412.199 447.912 453.393 447.631L453.393 447.635ZM454.859 431.5C488.332 432.121 522.9 433.657 556.5 440.261L554.192 444.303C523.85 438.326 494.862 436.333 455.056 435.726 412.056 435.804 366.444 438.846 324.972 450.81 311.583 454.68 288.475 463.048 287.705 469.673L285.5 465.796C286.002 459.779 306.006 451.93 324.004 446.735 365.796 434.678 411.527 431.578 454.86 431.5Z" stroke="#000000" stroke-width="1.03864" stroke-linecap="round" stroke-linejoin="round" stroke-miterlimit="10" fill="#FFFF00" fill-rule="evenodd"></path><path d="M619.706 467.864 605.75 489.5 565.654 453.918 461.636 383.996 344.379 319.744 283.5 298.938 296.474 274.9 300.881 272.5 338.705 281.949 463.527 346.201 535.394 391.555 595.914 435.02 620.5 463.367Z" stroke="#000000" stroke-width="1.08199" stroke-linecap="round" stroke-linejoin="round" stroke-miterlimit="10" fill="#FFFF00" fill-rule="evenodd"></path><path d="M281.851 299.433C292.497 292.188 370.731 327.161 452.591 376.693 534.234 426.367 612.247 482.499 605.205 493.003L602.889 496.659 601.826 497.5C602.054 497.337 603.228 495.897 601.711 492.002 598.233 480.516 542.894 436.203 451.073 380.57 361.56 327.008 286.959 294.725 279.5 303.953L281.851 299.432 281.85 299.432ZM622.067 467.688C628.798 454.345 556.233 399.49 466.266 346.082 374.23 293.736 307.897 262.924 295.781 272.112L293.089 277.03C293.066 277.3 293.187 276.694 293.756 276.254 295.959 274.325 299.611 274.455 301.258 274.425 322.121 274.739 381.706 302.255 465.306 350.349 501.937 371.758 620.049 447.773 619.599 469.149 619.63 470.986 619.75 471.365 619.062 472.274L622.066 467.689 622.066 467.685Z" stroke="#000000" stroke-width="1.08199" stroke-linecap="round" stroke-linejoin="round" stroke-miterlimit="10" fill="#FFFF00" fill-rule="evenodd"></path><path d="M341.527 399.363C341.527 430.121 354.152 457.939 374.605 478.27 395.098 498.644 422.947 511.5 453.828 511.5 484.867 511.5 513.036 498.925 533.442 478.629 553.848 458.336 566.494 430.327 566.5 399.461L566.496 399.461 566.496 249.767 341.5 249.5 341.523 399.363 341.527 399.363Z" stroke="#000000" stroke-width="1.26593" stroke-miterlimit="8" fill="#FFFFFF" fill-rule="evenodd"></path><path d="M345.503 399.358 345.503 399.443C345.503 428.806 357.717 455.545 377.312 474.957 396.945 494.407 423.985 506.5 453.566 506.5 483.301 506.5 510.286 494.495 529.835 475.12 549.381 455.745 561.496 429.004 561.5 399.539L561.496 399.539 561.496 254.535 345.632 254.5 345.5 399.357M518.097 297.913 518.104 390.192 518.026 399.953 518.027 399.953C518.027 402.521 517.872 405.45 517.571 407.943 515.817 422.532 509.076 435.248 499.092 445.141 487.405 456.721 471.273 463.904 453.494 463.904 435.808 463.904 420.047 456.472 408.309 444.841 396.269 432.912 389.29 416.556 389.29 399.643L389.265 297.678 518.094 297.909 518.097 297.913Z" stroke="#000000" stroke-width="0.958005" stroke-miterlimit="8" fill="#FF0000" fill-rule="evenodd"></path><path d="M359 291.904C359.26 281.5 366.814 279.037 366.868 279 366.923 278.965 375.027 281.653 375 292L359 291.904" fill="#FFFF00" fill-rule="evenodd"></path><path d="M353.785 279.574 352.5 291.483 360.301 291.5C360.376 281.647 367.788 280.008 367.968 280.045 368.136 280.035 375.483 282.223 375.679 291.5L383.5 291.5 382.088 279.5 353.785 279.571 353.785 279.575Z" stroke="#000000" stroke-width="0.944147" stroke-miterlimit="8" fill="#FFFF00" fill-rule="evenodd"></path><path d="M351.71 291.5 383.291 291.5C383.956 291.5 384.5 292.176 384.5 293.003 384.5 293.827 383.956 294.5 383.291 294.5L351.71 294.5C351.044 294.5 350.5 293.827 350.5 293.003 350.5 292.176 351.044 291.5 351.71 291.5Z" stroke="#000000" stroke-width="0.944147" stroke-miterlimit="8" fill="#FFFF00" fill-rule="evenodd"></path><path d="M363.5 291.5C363.536 285.262 367.893 283.497 367.915 283.5 367.917 283.5 372.464 285.32 372.5 291.5L363.5 291.5" stroke="#000000" stroke-width="0.944147" stroke-miterlimit="8" fill="#FFFF00" fill-rule="evenodd"></path><path d="M352.675 274.5 383.325 274.5C383.971 274.5 384.5 275.178 384.5 276 384.5 276.824 383.971 277.5 383.325 277.5L352.675 277.5C352.029 277.5 351.5 276.828 351.5 276 351.5 275.178 352.029 274.5 352.675 274.5Z" stroke="#000000" stroke-width="0.944147" stroke-miterlimit="8" fill="#FFFF00" fill-rule="evenodd"></path><path d="M352.639 277.5 382.361 277.5C382.987 277.5 383.5 277.95 383.5 278.499 383.5 279.051 382.987 279.5 382.361 279.5L352.639 279.5C352.013 279.5 351.5 279.051 351.5 278.499 351.5 277.95 352.013 277.5 352.639 277.5Z" stroke="#000000" stroke-width="0.944147" stroke-miterlimit="8" fill="#FFFF00" fill-rule="evenodd"></path><path d="M362.503 257.534 364.719 257.538 364.719 259.259 366.336 259.259 366.336 257.5 368.606 257.508 368.606 259.26 370.228 259.26 370.228 257.501 372.5 257.501 372.497 261.473C372.497 262.096 372.038 262.5 371.506 262.5L363.536 262.5C363.001 262.5 362.507 262.032 362.505 261.461L362.5 257.536 362.502 257.536Z" stroke="#000000" stroke-width="0.944147" stroke-miterlimit="8" fill="#FFFF00" fill-rule="evenodd"></path><path d="M370.985 262.531 371.5 274.5 363.5 274.471 364.03 262.5 370.985 262.531" stroke="#000000" stroke-width="0.944147" stroke-miterlimit="8" fill="#FFFF00" fill-rule="evenodd"></path><path d="M361.245 267.5 361.5 274.496 353.5 274.5 353.726 267.501 361.247 267.501 361.245 267.501Z" stroke="#000000" stroke-width="0.944147" stroke-miterlimit="8" fill="#FFFF00" fill-rule="evenodd"></path><path d="M381.246 267.5 381.501 274.496 373.501 274.5 373.727 267.501 381.248 267.501 381.246 267.501Z" stroke="#000000" stroke-width="0.944147" stroke-miterlimit="8" fill="#FFFF00" fill-rule="evenodd"></path><path d="M352.503 263.527 354.717 263.532 354.717 264.91 356.337 264.91 356.337 263.5 358.606 263.506 358.606 264.91 360.229 264.91 360.229 263.501 362.5 263.504 362.496 266.681C362.496 267.177 362.037 267.5 361.507 267.5L353.538 267.5C353.004 267.5 352.507 267.128 352.506 266.67L352.5 263.529 352.502 263.529Z" stroke="#000000" stroke-width="0.944147" stroke-miterlimit="8" fill="#FFFF00" fill-rule="evenodd"></path><path d="M372.504 263.527 374.718 263.532 374.718 264.91 376.338 264.91 376.338 263.5 378.607 263.506 378.607 264.91 380.23 264.91 380.23 263.501 382.501 263.504 382.497 266.681C382.497 267.177 382.038 267.5 381.508 267.5L373.539 267.5C373.005 267.5 372.508 267.128 372.507 266.67L372.501 263.529 372.503 263.529Z" stroke="#000000" stroke-width="0.944147" stroke-miterlimit="8" fill="#FFFF00" fill-rule="evenodd"></path><path d="M366.001 265.942C365.94 264.693 368.024 264.679 368 265.942L368 269 366.001 269 366.001 265.942" fill-rule="evenodd"></path><path d="M356 269.837C355.993 268.732 358.026 268.71 358 269.837L358 272 356.001 272 356.001 269.837" fill-rule="evenodd"></path><path d="M376.001 269.837C375.994 268.732 378.027 268.71 378.001 269.837L378.001 272 376.002 272 376.002 269.837" fill-rule="evenodd"></path><path d="M359 378.908C359.26 368.505 366.814 366.042 366.868 366.005 366.923 365.97 375.027 368.658 375 379.005L359 378.908" fill="#FFFF00" fill-rule="evenodd"></path><path d="M353.785 367.579 352.5 379.488 360.301 379.505C360.376 369.652 367.788 368.013 367.968 368.049 368.136 368.04 375.483 370.228 375.679 379.505L383.5 379.505 382.088 367.505 353.785 367.576 353.785 367.58Z" stroke="#000000" stroke-width="0.944147" stroke-miterlimit="8" fill="#FFFF00" fill-rule="evenodd"></path><path d="M351.71 379.505 383.291 379.505C383.956 379.505 384.5 380.181 384.5 381.008 384.5 381.832 383.956 382.505 383.291 382.505L351.71 382.505C351.044 382.505 350.5 381.832 350.5 381.008 350.5 380.181 351.044 379.505 351.71 379.505Z" stroke="#000000" stroke-width="0.944147" stroke-miterlimit="8" fill="#FFFF00" fill-rule="evenodd"></path><path d="M363.5 379.505C363.536 373.267 367.893 371.502 367.915 371.505 367.917 371.505 372.464 373.325 372.5 379.505L363.5 379.505" stroke="#000000" stroke-width="0.944147" stroke-miterlimit="8" fill="#FFFF00" fill-rule="evenodd"></path><path d="M352.675 362.504 383.325 362.504C383.971 362.504 384.5 362.956 384.5 363.504 384.5 364.053 383.971 364.504 383.325 364.504L352.675 364.504C352.029 364.504 351.5 364.056 351.5 363.504 351.5 362.956 352.029 362.504 352.675 362.504Z" stroke="#000000" stroke-width="0.944147" stroke-miterlimit="8" fill="#FFFF00" fill-rule="evenodd"></path><path d="M352.639 364.505 382.361 364.505C382.987 364.505 383.5 365.18 383.5 366.005 383.5 366.831 382.987 367.506 382.361 367.506L352.639 367.506C352.013 367.506 351.5 366.831 351.5 366.005 351.5 365.18 352.013 364.505 352.639 364.505Z" stroke="#000000" stroke-width="0.944147" stroke-miterlimit="8" fill="#FFFF00" fill-rule="evenodd"></path><path d="M362.503 344.54 364.719 344.543 364.719 346.264 366.336 346.264 366.336 344.505 368.606 344.513 368.606 346.265 370.228 346.265 370.228 344.506 372.5 344.506 372.497 348.478C372.497 349.101 372.038 349.505 371.506 349.505L363.536 349.505C363.001 349.505 362.507 349.037 362.505 348.466L362.5 344.541 362.502 344.541Z" stroke="#000000" stroke-width="0.944147" stroke-miterlimit="8" fill="#FFFF00" fill-rule="evenodd"></path><path d="M370.985 349.539 371.5 362.505 363.5 362.473 364.03 349.505 370.985 349.539" stroke="#000000" stroke-width="0.944147" stroke-miterlimit="8" fill="#FFFF00" fill-rule="evenodd"></path><path d="M361.245 355.505 361.5 362.501 353.5 362.505 353.726 355.506 361.247 355.506 361.245 355.506Z" stroke="#000000" stroke-width="0.944147" stroke-miterlimit="8" fill="#FFFF00" fill-rule="evenodd"></path><path d="M381.246 355.505 381.501 362.501 373.501 362.505 373.727 355.506 381.248 355.506 381.246 355.506Z" stroke="#000000" stroke-width="0.944147" stroke-miterlimit="8" fill="#FFFF00" fill-rule="evenodd"></path><path d="M352.503 350.539 354.717 350.545 354.717 352.267 356.337 352.267 356.337 350.505 358.606 350.513 358.606 352.268 360.229 352.268 360.229 350.506 362.5 350.51 362.496 354.481C362.496 355.101 362.037 355.505 361.507 355.505L353.538 355.505C353.004 355.505 352.507 355.04 352.506 354.468L352.5 350.541 352.502 350.541Z" stroke="#000000" stroke-width="0.944147" stroke-miterlimit="8" fill="#FFFF00" fill-rule="evenodd"></path><path d="M372.504 350.539 374.718 350.545 374.718 352.267 376.338 352.267 376.338 350.505 378.607 350.513 378.607 352.268 380.23 352.268 380.23 350.506 382.501 350.51 382.497 354.481C382.497 355.101 382.038 355.505 381.508 355.505L373.539 355.505C373.005 355.505 372.508 355.04 372.507 354.468L372.501 350.541 372.503 350.541Z" stroke="#000000" stroke-width="0.944147" stroke-miterlimit="8" fill="#FFFF00" fill-rule="evenodd"></path><path d="M366.001 352.947C365.94 351.698 368.024 351.684 368 352.947L368 356.005 366.001 356.005 366.001 352.947" fill-rule="evenodd"></path><path d="M356 357.841C355.993 356.737 358.026 356.715 358 357.841L358 360.005 356.001 360.005 356.001 357.841" fill-rule="evenodd"></path><path d="M376.001 357.841C375.994 356.737 378.027 356.715 378.001 357.841L378.001 360.005 376.002 360.005 376.002 357.841" fill-rule="evenodd"></path><path d="M393.544 470.45C386.321 462.918 389.784 455.924 389.796 455.861 389.809 455.798 397.318 452.061 404.662 459.391L393.545 470.45" fill="#FFFF00" fill-rule="evenodd"></path><path d="M380.006 466.008 387.606 475.37 393.132 469.83C386.145 462.787 390.213 456.349 390.366 456.247 390.478 456.121 397.233 452.444 403.999 458.885L409.527 453.319 399.956 445.811 380.004 466.005 380.007 466.008Z" stroke="#000000" stroke-width="0.944147" stroke-miterlimit="8" fill="#FFFF00" fill-rule="evenodd"></path><path d="M387.27 475.777 409.833 453.053C410.309 452.574 411.171 452.653 411.749 453.227 412.326 453.8 412.408 454.659 411.933 455.138L389.369 477.861C388.893 478.34 388.034 478.264 387.457 477.691 386.878 477.117 386.794 476.256 387.27 475.777Z" stroke="#000000" stroke-width="0.944147" stroke-miterlimit="8" fill="#FFFF00" fill-rule="evenodd"></path><path d="M395.431 467.477C391.014 463.041 392.744 458.785 392.762 458.771 392.763 458.77 397.177 456.918 401.602 461.262L395.432 467.477" stroke="#000000" stroke-width="0.944147" stroke-miterlimit="8" fill="#FFFF00" fill-rule="evenodd"></path><path d="M375.667 463.298 397.297 441.514C397.753 441.056 398.553 441.103 399.071 441.618 399.591 442.133 399.643 442.932 399.187 443.391L377.557 465.174C377.101 465.633 376.304 465.589 375.783 465.071 375.265 464.557 375.211 463.757 375.667 463.298Z" stroke="#000000" stroke-width="0.944147" stroke-miterlimit="8" fill="#FFFF00" fill-rule="evenodd"></path><path d="M378.024 464.733 398.713 443.897C399.149 443.458 399.93 443.52 400.449 444.036 400.969 444.553 401.037 445.334 400.602 445.773L379.912 466.608C379.477 467.047 378.695 466.985 378.175 466.468 377.656 465.952 377.588 465.171 378.024 464.733Z" stroke="#000000" stroke-width="0.944147" stroke-miterlimit="8" fill="#FFFF00" fill-rule="evenodd"></path><path d="M370.507 443.901 372.143 442.259 373.312 443.419 374.503 442.219 373.309 441.033 374.988 439.353 376.177 440.534 377.373 439.33 376.178 438.144 377.853 436.458 380.548 439.139C380.971 439.56 380.907 440.173 380.515 440.568L374.641 446.483C374.247 446.88 373.565 446.931 373.176 446.547L370.506 443.904 370.507 443.903Z" stroke="#000000" stroke-width="0.944147" stroke-miterlimit="8" fill="#FFFF00" fill-rule="evenodd"></path><path d="M380.266 441.287 389.286 449.506 383.535 455.255 375.262 446.281 380.266 441.287" stroke="#000000" stroke-width="0.944147" stroke-miterlimit="8" fill="#FFFF00" fill-rule="evenodd"></path><path d="M377.285 452.309 382.124 456.763 376.633 462.298 372.122 457.509 377.287 452.308 377.286 452.309Z" stroke="#000000" stroke-width="0.944147" stroke-miterlimit="8" fill="#FFFF00" fill-rule="evenodd"></path><path d="M391.411 438.081 396.25 442.536 390.759 448.07 386.248 443.282 391.413 438.081 391.412 438.082Z" stroke="#000000" stroke-width="0.944147" stroke-miterlimit="8" fill="#FFFF00" fill-rule="evenodd"></path><path d="M367.728 455.175 369.329 453.571 370.499 454.732 371.667 453.556 370.47 452.367 372.112 450.724 373.305 451.908 374.475 450.729 373.278 449.54 374.919 447.893 377.614 450.575C378.035 450.993 377.978 451.599 377.595 451.984L371.848 457.773C371.462 458.161 370.788 458.208 370.398 457.823L367.727 455.179 367.728 455.178Z" stroke="#000000" stroke-width="0.944147" stroke-miterlimit="8" fill="#FFFF00" fill-rule="evenodd"></path><path d="M381.854 440.948 383.455 439.344 384.625 440.505 385.793 439.329 384.596 438.14 386.238 436.497 387.431 437.681 388.601 436.502 387.405 435.313 389.045 433.666 391.74 436.348C392.161 436.766 392.104 437.372 391.722 437.757L385.974 443.546C385.588 443.934 384.914 443.981 384.524 443.596L381.853 440.952 381.855 440.95Z" stroke="#000000" stroke-width="0.944147" stroke-miterlimit="8" fill="#FFFF00" fill-rule="evenodd"></path><path d="M379.952 447.074C379.076 446.275 380.269 445.055 381.105 445.913L383.166 447.959 382.013 449.12 379.953 447.075" fill-rule="evenodd"></path><path d="M375.846 457.191C375.03 456.388 376.132 455.246 376.946 456.083L378.538 457.664 377.438 458.771 375.847 457.191" fill-rule="evenodd"></path><path d="M390.015 442.921C389.198 442.118 390.3 440.975 391.115 441.813L392.707 443.393 391.607 444.501 390.015 442.921" fill-rule="evenodd"></path><path d="M446.005 291.904C446.248 281.5 453.33 279.037 453.381 279 453.432 278.965 461.03 281.653 461.005 292L446.005 291.904" fill="#FFFF00" fill-rule="evenodd"></path><path d="M439.789 279.574 438.505 291.483 446.306 291.5C446.381 281.647 453.793 280.008 453.973 280.045 454.14 280.035 461.488 282.223 461.684 291.5L469.505 291.5 468.093 279.5 439.79 279.571 439.79 279.575Z" stroke="#000000" stroke-width="0.944147" stroke-miterlimit="8" fill="#FFFF00" fill-rule="evenodd"></path><path d="M437.75 291.5 470.26 291.5C470.945 291.5 471.505 292.176 471.505 293.003 471.505 293.827 470.945 294.5 470.26 294.5L437.75 294.5C437.065 294.5 436.505 293.827 436.505 293.003 436.505 292.176 437.065 291.5 437.75 291.5Z" stroke="#000000" stroke-width="0.944147" stroke-miterlimit="8" fill="#FFFF00" fill-rule="evenodd"></path><path d="M449.505 291.5C449.541 285.262 453.898 283.497 453.92 283.5 453.922 283.5 458.469 285.32 458.505 291.5L449.505 291.5" stroke="#000000" stroke-width="0.944147" stroke-miterlimit="8" fill="#FFFF00" fill-rule="evenodd"></path><path d="M438.68 274.5 469.33 274.5C469.976 274.5 470.505 275.178 470.505 276 470.505 276.824 469.976 277.5 469.33 277.5L438.68 277.5C438.034 277.5 437.505 276.828 437.505 276 437.505 275.178 438.034 274.5 438.68 274.5Z" stroke="#000000" stroke-width="0.944147" stroke-miterlimit="8" fill="#FFFF00" fill-rule="evenodd"></path><path d="M439.608 277.5 468.402 277.5C469.008 277.5 469.505 277.95 469.505 278.499 469.505 279.051 469.008 279.5 468.402 279.5L439.608 279.5C439.002 279.5 438.505 279.051 438.505 278.499 438.505 277.95 439.002 277.5 439.608 277.5Z" stroke="#000000" stroke-width="0.944147" stroke-miterlimit="8" fill="#FFFF00" fill-rule="evenodd"></path><path d="M448.508 257.534 450.946 257.538 450.946 259.259 452.725 259.259 452.725 257.5 455.222 257.508 455.222 259.26 457.006 259.26 457.006 257.501 459.505 257.501 459.501 261.473C459.501 262.096 458.997 262.5 458.411 262.5L449.645 262.5C449.056 262.5 448.513 262.032 448.511 261.461L448.505 257.536 448.507 257.536Z" stroke="#000000" stroke-width="0.944147" stroke-miterlimit="8" fill="#FFFF00" fill-rule="evenodd"></path><path d="M457.99 262.531 458.505 274.5 450.505 274.471 451.034 262.5 457.99 262.531" stroke="#000000" stroke-width="0.944147" stroke-miterlimit="8" fill="#FFFF00" fill-rule="evenodd"></path><path d="M447.281 267.5 447.504 274.496 440.504 274.5 440.702 267.501 447.283 267.501 447.281 267.501Z" stroke="#000000" stroke-width="0.944147" stroke-miterlimit="8" fill="#FFFF00" fill-rule="evenodd"></path><path d="M468.251 267.5 468.506 274.496 460.506 274.5 460.732 267.501 468.253 267.501 468.251 267.501Z" stroke="#000000" stroke-width="0.944147" stroke-miterlimit="8" fill="#FFFF00" fill-rule="evenodd"></path><path d="M438.508 263.527 440.944 263.532 440.944 264.91 442.726 264.91 442.726 263.5 445.222 263.506 445.222 264.91 447.007 264.91 447.007 263.501 449.505 263.504 449.501 266.681C449.501 267.177 448.996 267.5 448.412 267.5L439.647 267.5C439.059 267.5 438.513 267.128 438.511 266.67L438.505 263.529 438.507 263.529Z" stroke="#000000" stroke-width="0.944147" stroke-miterlimit="8" fill="#FFFF00" fill-rule="evenodd"></path><path d="M458.509 263.527 460.945 263.532 460.945 264.91 462.727 264.91 462.727 263.5 465.223 263.506 465.223 264.91 467.008 264.91 467.008 263.501 469.506 263.504 469.502 266.681C469.502 267.177 468.997 267.5 468.414 267.5L459.648 267.5C459.061 267.5 458.514 267.128 458.512 266.67L458.506 263.529 458.508 263.529Z" stroke="#000000" stroke-width="0.944147" stroke-miterlimit="8" fill="#FFFF00" fill-rule="evenodd"></path><path d="M453.004 265.942C452.973 264.693 454.015 264.679 454.003 265.942L454.003 269 453.004 269 453.004 265.942" fill-rule="evenodd"></path><path d="M443.003 269.837C442.999 268.732 444.016 268.71 444.003 269.837L444.003 272 443.004 272 443.004 269.837" fill-rule="evenodd"></path><path d="M463.004 269.837C463 268.732 464.017 268.71 464.004 269.837L464.004 272 463.004 272 463.004 269.837" fill-rule="evenodd"></path><path d="M0.00913905 12.9036C0.253082 2.49981 7.33464 0.0369559 7.38556 0.000314073 7.43658-0.034548 15.0346 2.65287 15.0091 13L0.00933991 12.9036" fill="#FFFF00" fill-rule="evenodd" transform="matrix(-1 1.22465e-16 1.22465e-16 1 547 279)"></path><path d="M1.29397 0.0741429 0.00952526 11.9831 7.81071 12C7.88555 2.14712 15.2979 0.508156 15.4772 0.544549 15.6451 0.535164 22.9926 2.72295 23.1886 12L31.0095 12 29.5972 0 1.2946 0.0711188 1.2946 0.0748729Z" stroke="#000000" stroke-width="0.944147" stroke-miterlimit="8" fill="#FFFF00" fill-rule="evenodd" transform="matrix(-1 1.22465e-16 1.22465e-16 1 555.5 279.5)"></path><path d="M1.255 0 33.7646 0C34.4498 0 35.0098 0.676083 35.0098 1.5025 35.0098 2.32732 34.4498 3 33.7646 3L1.255 3C0.569785 3 0.00969892 2.32732 0.00969892 1.5025 0.00969892 0.676083 0.569785 0 1.255 0Z" stroke="#000000" stroke-width="0.944147" stroke-miterlimit="8" fill="#FFFF00" fill-rule="evenodd" transform="matrix(-1 1.22465e-16 1.22465e-16 1 557.5 291.5)"></path><path d="M0.00981791 8.0001C0.045745 1.76212 4.40274-0.00334785 4.42507 0 4.4268 0 8.97378 1.82029 9.00982 8.0001L0.0100337 8.0001" stroke="#000000" stroke-width="0.944147" stroke-miterlimit="8" fill="#FFFF00" fill-rule="evenodd" transform="matrix(-1 1.22465e-16 1.22465e-16 1 544.5 283.5)"></path><path d="M1.18429 0 31.8349 0C32.4805 0 33.0096 0.67777 33.0096 1.50006 33.0096 2.32424 32.4805 3.00012 31.8349 3.00012L1.18429 3.00012C0.538684 3.00012 0.00953887 2.32802 0.00953887 1.50006 0.00953887 0.67777 0.538684 0 1.18429 0Z" stroke="#000000" stroke-width="0.944147" stroke-miterlimit="8" fill="#FFFF00" fill-rule="evenodd" transform="matrix(-1 1.22465e-16 1.22465e-16 1 556.5 274.5)"></path><path d="M1.11251 0 29.9063 0C30.5126 0 31.0095 0.449608 31.0095 0.999408 31.0095 1.55047 30.5126 2.00008 29.9063 2.00008L1.11251 2.00008C0.506222 2.00008 0.00936876 1.55047 0.00936876 0.999408 0.00936876 0.449608 0.506222 0 1.11251 0Z" stroke="#000000" stroke-width="0.944147" stroke-miterlimit="8" fill="#FFFF00" fill-rule="evenodd" transform="matrix(-1 1.22465e-16 1.22465e-16 1 555.5 277.5)"></path><path d="M0.013138 0.0343322 2.45084 0.038281 2.45084 1.75862 4.22965 1.75862 4.22965 0 6.72696 0.00789751 6.72696 1.75961 8.51108 1.75961 8.51108 0.000987188 11.0102 0.000987188 11.0062 3.97267C11.0062 4.59602 10.5014 5.00011 9.91617 5.00011L1.14996 5.00011C0.561068 5.00011 0.0177749 4.53163 0.0160084 3.96049L0.0100467 0.0357582 0.0118131 0.0357582Z" stroke="#000000" stroke-width="0.944147" stroke-miterlimit="8" fill="#FFFF00" fill-rule="evenodd" transform="matrix(-1 1.22465e-16 1.22465e-16 1 545.5 257.5)"></path><path d="M8.43152 0.0311276 9.01069 12.0001 0.0105748 11.9706 0.606484 0 8.4314 0.0311276" stroke="#000000" stroke-width="0.944147" stroke-miterlimit="8" fill="#FFFF00" fill-rule="evenodd" transform="matrix(-1 1.22465e-16 1.22465e-16 1 544.5 262.5)"></path><path d="M6.78668 0 7.00961 6.99609 0.009615 7.00011 0.207099 0.000447077 6.788 0.000447077 6.78649 0.000447077Z" stroke="#000000" stroke-width="0.944147" stroke-miterlimit="8" fill="#FFFF00" fill-rule="evenodd" transform="matrix(-1 1.22465e-16 1.22465e-16 1 553.5 267.5)"></path><path d="M6.78564 0 7.00858 6.99609 0.00857808 7.00011 0.206063 0.000447077 6.78706 0.000447077 6.78555 0.000447077Z" stroke="#000000" stroke-width="0.944147" stroke-miterlimit="8" fill="#FFFF00" fill-rule="evenodd" transform="matrix(-1 1.22465e-16 1.22465e-16 1 533.5 267.5)"></path><path d="M0.0144398 0.0272879 2.44992 0.032026 2.44992 1.40958 4.23178 1.40958 4.23178 0 6.72806 0.00631745 6.72806 1.41037 8.51353 1.41037 8.51353 0.000789681 11.0115 0.00386067 11.0074 3.18101C11.0074 3.67693 10.5024 4.00009 9.9187 4.00009L1.15293 4.00009C0.565523 4.00009 0.0194035 3.62815 0.0175986 3.16987L0.0115067 0.028955 0.0133117 0.028955Z" stroke="#000000" stroke-width="0.944147" stroke-miterlimit="8" fill="#FFFF00" fill-rule="evenodd" transform="matrix(-1 1.22465e-16 1.22465e-16 1 555.5 263.5)"></path><path d="M0.0133117 0.0272879 2.44879 0.032026 2.44879 1.40958 4.23053 1.40958 4.23053 0 6.72693 0.00631745 6.72693 1.41037 8.51229 1.41037 8.51229 0.000789681 11.0103 0.00386067 11.0062 3.18101C11.0062 3.67693 10.5013 4.00009 9.91746 4.00009L1.15169 4.00009C0.564395 4.00009 0.0181626 3.62815 0.0163576 3.16987L0.0102658 0.028955 0.0120708 0.028955Z" stroke="#000000" stroke-width="0.944147" stroke-miterlimit="8" fill="#FFFF00" fill-rule="evenodd" transform="matrix(-1 1.22465e-16 1.22465e-16 1 535.5 263.5)"></path><path d="M0.00647436 0.941521C-0.0240385-0.306799 1.01795-0.320845 1.00577 0.941521L1.00577 4 0.00653846 4 0.00653846 0.942295" fill-rule="evenodd" transform="matrix(-1 1.22465e-16 1.22465e-16 1 540 265)"></path><path d="M0.00685714 0.836618C0.00322689-0.2676 1.01956-0.290078 1.00679 0.836618L1.00679 3 0.0072605 3 0.0072605 0.836821" fill-rule="evenodd" transform="matrix(-1 1.22465e-16 1.22465e-16 1 550 269)"></path><path d="M0.00611765 0.836618C0.00248739-0.2676 1.01889-0.290078 1.00605 0.836618L1.00605 3 0.00652101 3 0.00652101 0.836821" fill-rule="evenodd" transform="matrix(-1 1.22465e-16 1.22465e-16 1 530 269)"></path><path d="M0.00913905 12.9084C0.253082 2.50463 7.33464 0.0417717 7.38556 0.00523455 7.43658-0.0296275 15.0346 2.65768 15.0091 13.0049L0.00933991 12.9084" fill="#FFFF00" fill-rule="evenodd" transform="matrix(-1 1.22465e-16 1.22465e-16 1 547 366)"></path><path d="M1.29397 0.0789398 0.00952526 11.9879 7.81071 12.0048C7.88555 2.15192 15.2979 0.512952 15.4772 0.549346 15.6451 0.539961 22.9926 2.72775 23.1886 12.0048L31.0095 12.0048 29.5972 0.00479687 1.2946 0.07602 1.2946 0.0797741Z" stroke="#000000" stroke-width="0.944147" stroke-miterlimit="8" fill="#FFFF00" fill-rule="evenodd" transform="matrix(-1 1.22465e-16 1.22465e-16 1 555.5 367.5)"></path><path d="M1.255 0.00489761 33.7646 0.00489761C34.4498 0.00489761 35.0098 0.680981 35.0098 1.50751 35.0098 2.33233 34.4498 3.005 33.7646 3.005L1.255 3.005C0.569785 3.005 0.00969892 2.33233 0.00969892 1.50751 0.00969892 0.680981 0.569785 0.00489761 1.255 0.00489761Z" stroke="#000000" stroke-width="0.944147" stroke-miterlimit="8" fill="#FFFF00" fill-rule="evenodd" transform="matrix(-1 1.22465e-16 1.22465e-16 1 557.5 379.5)"></path><path d="M0.00981791 8.00492C0.045745 1.76693 4.40274 0.00146468 4.42507 0.00481253 4.4268 0.00481253 8.97378 1.8251 9.00982 8.00492L0.0100337 8.00492" stroke="#000000" stroke-width="0.944147" stroke-miterlimit="8" fill="#FFFF00" fill-rule="evenodd" transform="matrix(-1 1.22465e-16 1.22465e-16 1 544.5 371.5)"></path><path d="M1.18429 0.00362676 31.8349 0.00362676C32.4805 0.00362676 33.0096 0.455474 33.0096 1.00367 33.0096 1.55312 32.4805 2.00371 31.8349 2.00371L1.18429 2.00371C0.538684 2.00371 0.00953887 1.55564 0.00953887 1.00367 0.00953887 0.455474 0.538684 0.00362676 1.18429 0.00362676Z" stroke="#000000" stroke-width="0.944147" stroke-miterlimit="8" fill="#FFFF00" fill-rule="evenodd" transform="matrix(-1 1.22465e-16 1.22465e-16 1 556.5 362.5)"></path><path d="M1.11251 0.00544357 29.9063 0.00544357C30.5126 0.00544357 31.0095 0.679855 31.0095 1.50456 31.0095 2.33115 30.5126 3.00556 29.9063 3.00556L1.11251 3.00556C0.506222 3.00556 0.00936876 2.33115 0.00936876 1.50456 0.00936876 0.679855 0.506222 0.00544357 1.11251 0.00544357Z" stroke="#000000" stroke-width="0.944147" stroke-miterlimit="8" fill="#FFFF00" fill-rule="evenodd" transform="matrix(-1 1.22465e-16 1.22465e-16 1 555.5 364.5)"></path><path d="M0.013138 0.0394875 2.45084 0.0434363 2.45084 1.76378 4.22965 1.76378 4.22965 0.00504563 6.72696 0.0129431 6.72696 1.76465 8.51108 1.76465 8.51108 0.00603282 11.0102 0.00603282 11.0062 3.97782C11.0062 4.60118 10.5014 5.00516 9.91617 5.00516L1.14996 5.00516C0.561068 5.00516 0.0177749 4.53679 0.0160084 3.96565L0.0100467 0.0408038 0.0118131 0.0408038Z" stroke="#000000" stroke-width="0.944147" stroke-miterlimit="8" fill="#FFFF00" fill-rule="evenodd" transform="matrix(-1 1.22465e-16 1.22465e-16 1 545.5 344.5)"></path><path d="M8.43152 0.0389696 9.01069 13.0052 0.0105748 12.9733 0.606484 0.0051364 8.4314 0.0389696" stroke="#000000" stroke-width="0.944147" stroke-miterlimit="8" fill="#FFFF00" fill-rule="evenodd" transform="matrix(-1 1.22465e-16 1.22465e-16 1 544.5 349.5)"></path><path d="M6.78668 0.00514139 7.00961 7.00123 0.009615 7.00525 0.207099 0.00558847 6.788 0.00558847 6.78649 0.00558847Z" stroke="#000000" stroke-width="0.944147" stroke-miterlimit="8" fill="#FFFF00" fill-rule="evenodd" transform="matrix(-1 1.22465e-16 1.22465e-16 1 553.5 355.5)"></path><path d="M6.78564 0.00514139 7.00858 7.00123 0.00857808 7.00525 0.206063 0.00558847 6.78706 0.00558847 6.78555 0.00558847Z" stroke="#000000" stroke-width="0.944147" stroke-miterlimit="8" fill="#FFFF00" fill-rule="evenodd" transform="matrix(-1 1.22465e-16 1.22465e-16 1 533.5 355.5)"></path><path d="M0.0144398 0.0392647 2.44992 0.0451873 2.44992 1.76713 4.23178 1.76713 4.23178 0.00504519 6.72806 0.012942 6.72806 1.76801 8.51353 1.76801 8.51353 0.00603229 11.0115 0.0099807 11.0074 3.98142C11.0074 4.60121 10.5024 5.00516 9.9187 5.00516L1.15293 5.00516C0.565523 5.00516 0.0194035 4.54034 0.0175986 3.96749L0.0115067 0.0412389 0.0133117 0.0412389Z" stroke="#000000" stroke-width="0.944147" stroke-miterlimit="8" fill="#FFFF00" fill-rule="evenodd" transform="matrix(-1 1.22465e-16 1.22465e-16 1 555.5 350.5)"></path><path d="M0.0133117 0.0392647 2.44879 0.0451873 2.44879 1.76713 4.23053 1.76713 4.23053 0.00504519 6.72693 0.012942 6.72693 1.76801 8.51229 1.76801 8.51229 0.00603229 11.0103 0.0099807 11.0062 3.98142C11.0062 4.60121 10.5013 5.00516 9.91746 5.00516L1.15169 5.00516C0.564395 5.00516 0.0181626 4.54034 0.0163576 3.96749L0.0102658 0.0412389 0.0120708 0.0412389Z" stroke="#000000" stroke-width="0.944147" stroke-miterlimit="8" fill="#FFFF00" fill-rule="evenodd" transform="matrix(-1 1.22465e-16 1.22465e-16 1 535.5 350.5)"></path><path d="M0.00647436 0.946609C-0.0240385-0.301711 1.01795-0.315757 1.00577 0.946609L1.00577 4.0052 0.00653846 4.0052 0.00653846 0.947383" fill-rule="evenodd" transform="matrix(-1 1.22465e-16 1.22465e-16 1 540 352)"></path><path d="M0.00685714 0.841276C0.00322689-0.262943 1.01956-0.28542 1.00679 0.841276L1.00679 3.00476 0.0072605 3.00476 0.0072605 0.841478" fill-rule="evenodd" transform="matrix(-1 1.22465e-16 1.22465e-16 1 550 357)"></path><path d="M0.00611765 0.841276C0.00248739-0.262943 1.01889-0.28542 1.00605 0.841276L1.00605 3.00476 0.00652101 3.00476 0.00652101 0.841478" fill-rule="evenodd" transform="matrix(-1 1.22465e-16 1.22465e-16 1 530 357)"></path><path d="M0.00808399 12.9497C0.262992 2.51654 7.66593 0.0467192 7.71927 0.0100787 7.77249-0.0248819 15.7154 2.67003 15.6888 13.0465L0.00818898 12.9497" fill="#FFFF00" fill-rule="evenodd" transform="matrix(-0.704609 -0.709596 -0.709596 0.704609 522.319 461.327)"></path><path d="M1.29627 0.0844095 0.00808399 12.0741 7.83265 12.0911C7.90772 2.17134 15.3423 0.52126 15.5221 0.5579 15.6905 0.548451 23.0601 2.75118 23.2566 12.0911L31.101 12.0911 29.6844 0.00976378 1.29701 0.0813648 1.29701 0.0851444Z" stroke="#000000" stroke-width="0.944147" stroke-miterlimit="8" fill="#FFFF00" fill-rule="evenodd" transform="matrix(-0.704609 -0.709596 -0.709596 0.704609 527.636 466.864)"></path><path d="M1.23433 0.00955381 33.2576 0.00955381C33.9326 0.00955381 34.4842 0.67622 34.4842 1.49123 34.4842 2.30457 33.9326 2.96787 33.2576 2.96787L1.23433 2.96787C0.55937 2.96787 0.00776903 2.30457 0.00776903 1.49123 0.00776903 0.67622 0.55937 0.00955381 1.23433 0.00955381Z" stroke="#000000" stroke-width="0.944147" stroke-miterlimit="8" fill="#FFFF00" fill-rule="evenodd" transform="matrix(-0.704609 -0.709596 -0.709596 0.704609 520.276 476.642)"></path><path d="M0.007979 8.0378C0.0429396 1.77795 4.28273 0.00629921 4.30446 0.00965879 4.30614 0.00965879 8.73081 1.83633 8.76588 8.0378L0.00818898 8.0378" stroke="#000000" stroke-width="0.944147" stroke-miterlimit="8" fill="#FFFF00" fill-rule="evenodd" transform="matrix(-0.704609 -0.709596 -0.709596 0.704609 516.947 461.815)"></path><path d="M1.18509 0.00986877 31.8836 0.00986877C32.5302 0.00986877 33.0602 0.611549 33.0602 1.34152 33.0602 2.07318 32.5302 2.67318 31.8836 2.67318L1.18509 2.67318C0.538373 2.67318 0.00839895 2.07654 0.00839895 1.34152 0.00839895 0.611549 0.538373 0.00986877 1.18509 0.00986877Z" stroke="#000000" stroke-width="0.944147" stroke-miterlimit="8" fill="#FFFF00" fill-rule="evenodd" transform="matrix(-0.704609 -0.709596 -0.709596 0.704609 531.843 464.127)"></path><path d="M1.13323 0.00986877 30.4957 0.00986877C31.1141 0.00986877 31.6207 0.608189 31.6207 1.33984 31.6207 2.07307 31.1141 2.6715 30.4957 2.6715L1.13323 2.6715C0.514961 2.6715 0.00829396 2.07307 0.00829396 1.33984 0.00829396 0.608189 0.514961 0.00986877 1.13323 0.00986877Z" stroke="#000000" stroke-width="0.944147" stroke-miterlimit="8" fill="#FFFF00" fill-rule="evenodd" transform="matrix(-0.704609 -0.709596 -0.709596 0.704609 529.45 465.525)"></path><path d="M0.0119685 0.0430446 2.33008 0.0468241 2.33008 1.69344 4.02163 1.69344 4.02163 0.0101837 6.39643 0.0177428 6.39643 1.69438 8.09302 1.69438 8.09302 0.0110236 10.4695 0.0110236 10.4657 3.8126C10.4657 4.40924 9.98583 4.79591 9.42919 4.79591L1.09302 4.79591C0.533018 4.79591 0.0164829 4.34761 0.0148031 3.80095L0.00913386 0.0444095 0.0107087 0.0444095Z" stroke="#000000" stroke-width="0.944147" stroke-miterlimit="8" fill="#FFFF00" fill-rule="evenodd" transform="matrix(-0.704609 -0.709596 -0.709596 0.704609 536.199 443.873)"></path><path d="M7.61659 0.0417848 8.13984 12.2331 0.00871391 12.203 0.547087 0.00997375 7.61648 0.0417848" stroke="#000000" stroke-width="0.944147" stroke-miterlimit="8" fill="#FFFF00" fill-rule="evenodd" transform="matrix(-0.704609 -0.709596 -0.709596 0.704609 531.798 446.657)"></path><path d="M7.55748 0.0103937 7.80577 6.58184 0.00955381 6.58562 0.229606 0.0107087 7.55906 0.0107087 7.55738 0.0107087Z" stroke="#000000" stroke-width="0.944147" stroke-miterlimit="8" fill="#FFFF00" fill-rule="evenodd" transform="matrix(-0.704609 -0.709596 -0.709596 0.704609 534.714 457.658)"></path><path d="M7.55675 0.00955381 7.80504 6.5811 0.0088189 6.58488 0.228766 0.00997375 7.55822 0.00997375 7.55654 0.00997375Z" stroke="#000000" stroke-width="0.944147" stroke-miterlimit="8" fill="#FFFF00" fill-rule="evenodd" transform="matrix(-0.704609 -0.709596 -0.709596 0.704609 520.588 443.432)"></path><path d="M0.0125984 0.0431496 2.27916 0.0488189 2.27916 1.69711 3.93743 1.69711 3.93743 0.0104987 6.26058 0.0180577 6.26058 1.69795 7.9222 1.69795 7.9222 0.0113386 10.2469 0.0151181 10.2431 3.81669C10.2431 4.40997 9.77312 4.79664 9.22982 4.79664L1.07213 4.79664C0.525459 4.79664 0.0171129 4.35171 0.0155381 3.80336L0.00976378 0.0450394 0.0114436 0.0450394Z" stroke="#000000" stroke-width="0.944147" stroke-miterlimit="8" fill="#FFFF00" fill-rule="evenodd" transform="matrix(-0.704609 -0.709596 -0.709596 0.704609 538.979 455.148)"></path><path d="M0.0118635 0.0423097 2.27832 0.047979 2.27832 1.69627 3.93659 1.69627 3.93659 0.00965879 6.25974 0.0172178 6.25974 1.69722 7.92137 1.69722 7.92137 0.0106037 10.2461 0.0143832 10.2423 3.81585C10.2423 4.40924 9.77239 4.79591 9.22908 4.79591L1.07129 4.79591C0.524724 4.79591 0.016378 4.35087 0.0146982 3.80252L0.00902887 0.0443045 0.0107087 0.0443045Z" stroke="#000000" stroke-width="0.944147" stroke-miterlimit="8" fill="#FFFF00" fill-rule="evenodd" transform="matrix(-0.704609 -0.709596 -0.709596 0.704609 524.853 440.922)"></path><path d="M0.00986877 0.903727C-0.04021-0.28126 1.66646-0.294488 1.6464 0.903727L1.6464 3.80714 0.00997375 3.80714 0.00997375 0.904462" fill-rule="evenodd" transform="matrix(-0.704609 -0.709596 -0.709596 0.704609 527.364 446.439)"></path><path d="M0.00965879 0.8779C0.00388451-0.267087 1.59118-0.290394 1.57113 0.8779L1.57113 3.12116 0.0102887 3.12116 0.0102887 0.87811" fill-rule="evenodd" transform="matrix(-0.704609 -0.709596 -0.709596 0.704609 531.451 456.573)"></path><path d="M0.0088189 0.87706C0.00314961-0.267927 1.59034-0.291234 1.57039 0.87706L1.57039 3.12032 0.00944882 3.12032 0.00944882 0.87727" fill-rule="evenodd" transform="matrix(-0.704609 -0.709596 -0.709596 0.704609 517.282 442.304)"></path><path d="M440.001 382.575 440.001 382.584C440.001 386.811 441.584 390.662 444.124 393.456 446.669 396.259 450.175 398 454.009 398 457.862 398 461.361 396.271 463.895 393.48 466.427 390.692 468 386.845 468 382.601L468 362.023 440.051 362 440 382.573" fill="#003399" fill-rule="evenodd"></path><path d="M449 370C449 371.657 447.657 373 446 373 444.343 373 443 371.657 443 370 443 368.343 444.343 367 446 367 447.657 367 449 368.343 449 370Z" fill="#FFFFFF" fill-rule="evenodd"></path><path d="M465 370C465 371.657 463.657 373 462 373 460.343 373 459 371.657 459 370 459 368.343 460.343 367 462 367 463.657 367 465 368.343 465 370Z" fill="#FFFFFF" fill-rule="evenodd"></path><path d="M457 377.5C457 378.881 455.657 380 454 380 452.343 380 451 378.881 451 377.5 451 376.119 452.343 375 454 375 455.657 375 457 376.119 457 377.5Z" fill="#FFFFFF" fill-rule="evenodd"></path><path d="M449 385.5C449 386.881 447.657 388 446 388 444.343 388 443 386.881 443 385.5 443 384.119 444.343 383 446 383 447.657 383 449 384.119 449 385.5Z" fill="#FFFFFF" fill-rule="evenodd"></path><path d="M465 385C465 386.657 463.657 388 462 388 460.343 388 459 386.657 459 385 459 383.343 460.343 382 462 382 463.657 382 465 383.343 465 385Z" fill="#FFFFFF" fill-rule="evenodd"></path><path d="M440.001 333.572 440.001 333.581C440.001 337.808 441.584 341.659 444.124 344.454 446.669 347.256 450.175 348.997 454.009 348.997 457.862 348.997 461.361 347.268 463.895 344.477 466.427 341.69 468 337.842 468 333.598L468 313.021 440.051 312.997 440 333.571" fill="#003399" fill-rule="evenodd"></path><path d="M449 320.997C449 322.654 447.657 323.997 446 323.997 444.343 323.997 443 322.654 443 320.997 443 319.34 444.343 317.997 446 317.997 447.657 317.997 449 319.34 449 320.997Z" fill="#FFFFFF" fill-rule="evenodd"></path><path d="M465 320.997C465 322.654 463.657 323.997 462 323.997 460.343 323.997 459 322.654 459 320.997 459 319.34 460.343 317.997 462 317.997 463.657 317.997 465 319.34 465 320.997Z" fill="#FFFFFF" fill-rule="evenodd"></path><path d="M457 327.997C457 329.654 455.657 330.997 454 330.997 452.343 330.997 451 329.654 451 327.997 451 326.34 452.343 324.997 454 324.997 455.657 324.997 457 326.34 457 327.997Z" fill="#FFFFFF" fill-rule="evenodd"></path><path d="M449 335.997C449 337.654 447.657 338.997 446 338.997 444.343 338.997 443 337.654 443 335.997 443 334.34 444.343 332.997 446 332.997 447.657 332.997 449 334.34 449 335.997Z" fill="#FFFFFF" fill-rule="evenodd"></path><path d="M465 335.997C465 337.654 463.657 338.997 462 338.997 460.343 338.997 459 337.654 459 335.997 459 334.34 460.343 332.997 462 332.997 463.657 332.997 465 334.34 465 335.997Z" fill="#FFFFFF" fill-rule="evenodd"></path><path d="M399.999 382.575 399.999 382.584C399.999 386.811 401.639 390.662 404.269 393.456 406.905 396.259 410.536 398 414.507 398 418.498 398 422.122 396.271 424.746 393.48 427.368 390.692 428.998 386.845 428.998 382.601L428.998 362.023 400.051 362 399.998 382.573" fill="#003399" fill-rule="evenodd"></path><path d="M409.998 370C409.998 371.657 408.655 373 406.998 373 405.341 373 403.998 371.657 403.998 370 403.998 368.343 405.341 367 406.998 367 408.655 367 409.998 368.343 409.998 370Z" fill="#FFFFFF" fill-rule="evenodd"></path><path d="M424.998 370C424.998 371.657 423.879 373 422.498 373 421.117 373 419.998 371.657 419.998 370 419.998 368.343 421.117 367 422.498 367 423.879 367 424.998 368.343 424.998 370Z" fill="#FFFFFF" fill-rule="evenodd"></path><path d="M416.998 377.5C416.998 378.881 415.879 380 414.498 380 413.117 380 411.998 378.881 411.998 377.5 411.998 376.119 413.117 375 414.498 375 415.879 375 416.998 376.119 416.998 377.5Z" fill="#FFFFFF" fill-rule="evenodd"></path><path d="M409.998 385.5C409.998 386.881 408.655 388 406.998 388 405.341 388 403.998 386.881 403.998 385.5 403.998 384.119 405.341 383 406.998 383 408.655 383 409.998 384.119 409.998 385.5Z" fill="#FFFFFF" fill-rule="evenodd"></path><path d="M424.998 385C424.998 386.657 423.879 388 422.498 388 421.117 388 419.998 386.657 419.998 385 419.998 383.343 421.117 382 422.498 382 423.879 382 424.998 383.343 424.998 385Z" fill="#FFFFFF" fill-rule="evenodd"></path><path d="M479.003 382.575 479.003 382.584C479.003 386.811 480.586 390.662 483.126 393.456 485.672 396.259 489.177 398 493.011 398 496.865 398 500.363 396.271 502.897 393.48 505.429 390.692 507.002 386.845 507.002 382.601L507.002 362.023 479.053 362 479.002 382.573" fill="#003399" fill-rule="evenodd"></path><path d="M488.002 370C488.002 371.657 486.883 373 485.502 373 484.121 373 483.002 371.657 483.002 370 483.002 368.343 484.121 367 485.502 367 486.883 367 488.002 368.343 488.002 370Z" fill="#FFFFFF" fill-rule="evenodd"></path><path d="M504.002 370C504.002 371.657 502.659 373 501.002 373 499.345 373 498.002 371.657 498.002 370 498.002 368.343 499.345 367 501.002 367 502.659 367 504.002 368.343 504.002 370Z" fill="#FFFFFF" fill-rule="evenodd"></path><path d="M496.002 377.5C496.002 378.881 494.659 380 493.002 380 491.345 380 490.002 378.881 490.002 377.5 490.002 376.119 491.345 375 493.002 375 494.659 375 496.002 376.119 496.002 377.5Z" fill="#FFFFFF" fill-rule="evenodd"></path><path d="M488.002 385.5C488.002 386.881 486.883 388 485.502 388 484.121 388 483.002 386.881 483.002 385.5 483.002 384.119 484.121 383 485.502 383 486.883 383 488.002 384.119 488.002 385.5Z" fill="#FFFFFF" fill-rule="evenodd"></path><path d="M504.002 385C504.002 386.657 502.659 388 501.002 388 499.345 388 498.002 386.657 498.002 385 498.002 383.343 499.345 382 501.002 382 502.659 382 504.002 383.343 504.002 385Z" fill="#FFFFFF" fill-rule="evenodd"></path><path d="M440.001 431.006 440.001 431.015C440.001 435.124 441.584 438.869 444.124 441.585 446.669 444.31 450.175 446.003 454.009 446.003 457.862 446.003 461.361 444.322 463.895 441.608 466.427 438.898 468 435.157 468 431.031L468 411.025 440.051 411.003 440 431.005" fill="#003399" fill-rule="evenodd"></path><path d="M449 418.502C449 419.883 447.657 421.002 446 421.002 444.343 421.002 443 419.883 443 418.502 443 417.122 444.343 416.002 446 416.002 447.657 416.002 449 417.122 449 418.502Z" fill="#FFFFFF" fill-rule="evenodd"></path><path d="M465 418.502C465 419.883 463.657 421.003 462 421.003 460.343 421.003 459 419.883 459 418.502 459 417.122 460.343 416.002 462 416.002 463.657 416.002 465 417.122 465 418.502Z" fill="#FFFFFF" fill-rule="evenodd"></path><path d="M457 426.003C457 427.66 455.657 429.003 454 429.003 452.343 429.003 451 427.66 451 426.003 451 424.346 452.343 423.003 454 423.003 455.657 423.003 457 424.346 457 426.003Z" fill="#FFFFFF" fill-rule="evenodd"></path><path d="M449 434.003C449 435.66 447.657 437.003 446 437.003 444.343 437.003 443 435.66 443 434.003 443 432.346 444.343 431.003 446 431.003 447.657 431.003 449 432.346 449 434.003Z" fill="#FFFFFF" fill-rule="evenodd"></path><path d="M465 434.003C465 435.66 463.657 437.003 462 437.003 460.343 437.003 459 435.66 459 434.003 459 432.346 460.343 431.003 462 431.003 463.657 431.003 465 432.346 465 434.003Z" fill="#FFFFFF" fill-rule="evenodd"></path></g></svg>